<svg width="546" height="37" viewBox="0 0 546 37" fill="none" xmlns="http://www.w3.org/2000/svg">
<path d="M17.9297 14.4976C17.9297 14.6929 17.9297 14.8491 17.9297 15.0444C17.9297 20.4741 13.8281 26.6851 6.28906 26.6851C3.94531 26.6851 1.79688 26.021 0 24.8491C0.3125 24.8882 0.625 24.9272 0.976562 24.9272C2.89062 24.9272 4.64844 24.2632 6.05469 23.1694C4.25781 23.1304 2.73438 21.9585 2.22656 20.3179C2.5 20.3569 2.73438 20.396 3.00781 20.396C3.35938 20.396 3.75 20.3179 4.0625 20.2397C2.1875 19.8491 0.78125 18.2085 0.78125 16.2163V16.1772C1.32812 16.4897 1.99219 16.646 2.65625 16.6851C1.52344 15.9429 0.820312 14.6929 0.820312 13.2866C0.820312 12.5054 1.01562 11.8022 1.36719 11.2163C3.39844 13.6772 6.44531 15.3179 9.84375 15.5132C9.76562 15.2007 9.72656 14.8882 9.72656 14.5757C9.72656 12.3101 11.5625 10.4741 13.8281 10.4741C15 10.4741 16.0547 10.9429 16.8359 11.7632C17.7344 11.5679 18.6328 11.2163 19.4141 10.7476C19.1016 11.7241 18.4766 12.5054 17.6172 13.0132C18.4375 12.9351 19.2578 12.7007 19.9609 12.3882C19.4141 13.2085 18.7109 13.9116 17.9297 14.4976Z" fill="#9B9B9B"/>
<path d="M60.8984 19.8101H57.9688V28.5601H54.0625V19.8101H50.8594V16.2163H54.0625V13.4429C54.0625 10.3179 55.9375 8.56006 58.7891 8.56006C60.1562 8.56006 61.6016 8.8335 61.6016 8.8335V11.9194H60C58.4375 11.9194 57.9688 12.8569 57.9688 13.8726V16.2163H61.4453L60.8984 19.8101Z" fill="#9B9B9B"/>
<path d="M101.25 14.0679C103.711 14.0679 105.742 16.0991 105.742 18.5601C105.742 21.0601 103.711 23.0522 101.25 23.0522C98.75 23.0522 96.7578 21.0601 96.7578 18.5601C96.7578 16.0991 98.75 14.0679 101.25 14.0679ZM101.25 21.4897C102.852 21.4897 104.141 20.2007 104.141 18.5601C104.141 16.9585 102.852 15.6694 101.25 15.6694C99.6094 15.6694 98.3203 16.9585 98.3203 18.5601C98.3203 20.2007 99.6484 21.4897 101.25 21.4897ZM106.953 13.9116C106.953 14.4976 106.484 14.9663 105.898 14.9663C105.312 14.9663 104.844 14.4976 104.844 13.9116C104.844 13.3257 105.312 12.8569 105.898 12.8569C106.484 12.8569 106.953 13.3257 106.953 13.9116ZM109.922 14.9663C110 16.4116 110 20.7476 109.922 22.1929C109.844 23.5991 109.531 24.8101 108.516 25.8647C107.5 26.8804 106.25 27.1929 104.844 27.271C103.398 27.3491 99.0625 27.3491 97.6172 27.271C96.2109 27.1929 95 26.8804 93.9453 25.8647C92.9297 24.8101 92.6172 23.5991 92.5391 22.1929C92.4609 20.7476 92.4609 16.4116 92.5391 14.9663C92.6172 13.5601 92.9297 12.3101 93.9453 11.2944C95 10.2788 96.2109 9.96631 97.6172 9.88818C99.0625 9.81006 103.398 9.81006 104.844 9.88818C106.25 9.96631 107.5 10.2788 108.516 11.2944C109.531 12.3101 109.844 13.5601 109.922 14.9663ZM108.047 23.7163C108.516 22.5835 108.398 19.8491 108.398 18.5601C108.398 17.3101 108.516 14.5757 108.047 13.4038C107.734 12.6616 107.148 12.0366 106.406 11.7632C105.234 11.2944 102.5 11.4116 101.25 11.4116C99.9609 11.4116 97.2266 11.2944 96.0938 11.7632C95.3125 12.0757 94.7266 12.6616 94.4141 13.4038C93.9453 14.5757 94.0625 17.3101 94.0625 18.5601C94.0625 19.8491 93.9453 22.5835 94.4141 23.7163C94.7266 24.4976 95.3125 25.0835 96.0938 25.396C97.2266 25.8647 99.9609 25.7476 101.25 25.7476C102.5 25.7476 105.234 25.8647 106.406 25.396C107.148 25.0835 107.773 24.4976 108.047 23.7163Z" fill="#9B9B9B"/>
<path d="M161.445 13.4429C161.914 15.0835 161.914 18.5991 161.914 18.5991C161.914 18.5991 161.914 22.0757 161.445 23.7554C161.211 24.6929 160.469 25.396 159.57 25.6304C157.891 26.0601 151.25 26.0601 151.25 26.0601C151.25 26.0601 144.57 26.0601 142.891 25.6304C141.992 25.396 141.25 24.6929 141.016 23.7554C140.547 22.0757 140.547 18.5991 140.547 18.5991C140.547 18.5991 140.547 15.0835 141.016 13.4429C141.25 12.5054 141.992 11.7632 142.891 11.5288C144.57 11.0601 151.25 11.0601 151.25 11.0601C151.25 11.0601 157.891 11.0601 159.57 11.5288C160.469 11.7632 161.211 12.5054 161.445 13.4429ZM149.062 21.7632L154.609 18.5991L149.062 15.4351V21.7632Z" fill="#9B9B9B"/>
</svg>
