<svg width="508" height="61" viewBox="0 0 508 61" fill="none" xmlns="http://www.w3.org/2000/svg">
<g clip-path="url(#clip0_10313_1828)">
<rect width="507.5" height="60" transform="translate(0.5 0.25)" fill="#EEEEEE"/>
<rect width="60" height="60" transform="translate(0.5 0.25)" fill="#2EBB77"/>
<path d="M32.6508 28.5742C34.4086 30.332 34.3793 33.1445 32.6508 34.8438C32.6508 34.873 32.6508 34.873 32.6508 34.873L30.6879 36.8359C28.9594 38.5645 26.1176 38.5645 24.3891 36.8359C22.6605 35.1074 22.6605 32.2656 24.3891 30.5371L25.473 29.4531C25.766 29.1602 26.2641 29.3652 26.2641 29.7754C26.2934 30.2734 26.3813 30.8008 26.557 31.2988C26.6156 31.4746 26.5863 31.6797 26.4398 31.7969L26.059 32.1777C25.2387 32.998 25.2094 34.3457 26.0297 35.166C26.85 36.0156 28.1977 36.0156 29.018 35.166L31.0102 33.2031C31.8305 32.3828 31.8305 31.0645 31.0102 30.2148C30.893 30.127 30.7758 30.0391 30.6879 29.9805C30.5707 29.8926 30.4828 29.7754 30.4828 29.5996C30.4828 29.3066 30.6 28.9844 30.8344 28.7207L31.4496 28.1055C31.6254 27.959 31.8598 27.9297 32.0648 28.0762C32.2699 28.2227 32.475 28.3984 32.6508 28.5742ZM36.7816 24.4434C38.5102 26.1719 38.5102 29.0137 36.7816 30.7422L35.6977 31.8262C35.4047 32.1191 34.9066 31.9141 34.9066 31.5039C34.8773 31.0059 34.7895 30.4785 34.6137 29.9805C34.5551 29.8047 34.5844 29.5996 34.7309 29.4824L35.1117 29.1016C35.932 28.2812 35.9613 26.9336 35.141 26.1133C34.3207 25.2637 32.973 25.2637 32.1527 26.1133L30.1605 28.0762C29.3402 28.8965 29.3402 30.2148 30.1605 31.0645C30.2777 31.1523 30.3949 31.2402 30.4828 31.2988C30.6 31.3867 30.6879 31.5039 30.6879 31.6797C30.6879 31.9727 30.5707 32.2949 30.3363 32.5586L29.7211 33.1738C29.5453 33.3203 29.3109 33.3496 29.1059 33.2031C28.9008 33.0566 28.6957 32.8809 28.5199 32.7051C26.7621 30.9473 26.7914 28.1348 28.5199 26.4355C28.5199 26.4062 28.5199 26.4062 28.5199 26.4062L30.4828 24.4434C32.2113 22.7148 35.0531 22.7148 36.7816 24.4434Z" fill="white"/>
<path d="M81.655 36.25V25.075H83.425V29.995H88.6V25.075H90.355V36.25H88.6V31.57H83.425V36.25H81.655ZM91.6806 36.25L95.6106 25.075H97.8006L101.731 36.25H99.8406L98.9856 33.745H94.4406L93.5706 36.25H91.6806ZM94.9506 32.17H98.4456L96.4656 26.32H96.9606L94.9506 32.17ZM103.056 36.25V25.075H107.121C107.871 25.075 108.531 25.215 109.101 25.495C109.671 25.765 110.116 26.165 110.436 26.695C110.766 27.215 110.931 27.84 110.931 28.57C110.931 29.34 110.736 30 110.346 30.55C109.966 31.1 109.451 31.5 108.801 31.75L111.381 36.25H109.371L106.626 31.375L107.781 32.05H104.826V36.25H103.056ZM104.826 30.475H107.151C107.561 30.475 107.916 30.395 108.216 30.235C108.516 30.075 108.746 29.855 108.906 29.575C109.076 29.285 109.161 28.945 109.161 28.555C109.161 28.165 109.076 27.83 108.906 27.55C108.746 27.26 108.516 27.04 108.216 26.89C107.916 26.73 107.561 26.65 107.151 26.65H104.826V30.475ZM117.056 36.43C116.226 36.43 115.486 36.255 114.836 35.905C114.196 35.555 113.691 35.075 113.321 34.465C112.961 33.855 112.781 33.16 112.781 32.38V25.075H114.551V32.305C114.551 32.795 114.656 33.23 114.866 33.61C115.086 33.99 115.381 34.285 115.751 34.495C116.131 34.705 116.566 34.81 117.056 34.81C117.556 34.81 117.991 34.705 118.361 34.495C118.741 34.285 119.036 33.99 119.246 33.61C119.466 33.23 119.576 32.795 119.576 32.305V25.075H121.331V32.38C121.331 33.16 121.151 33.855 120.791 34.465C120.431 35.075 119.926 35.555 119.276 35.905C118.636 36.255 117.896 36.43 117.056 36.43ZM125.53 36.25V26.65H122.56V25.075H130.21V26.65H127.285V36.25H125.53ZM131.533 36.25V25.075H133.303V29.995H138.478V25.075H140.233V36.25H138.478V31.57H133.303V36.25H131.533ZM142.549 36.25V25.075H149.914V26.65H144.319V29.86H149.614V31.435H144.319V34.675H149.914V36.25H142.549ZM151.557 36.25V25.075H153.207L157.407 30.895H156.582L160.707 25.075H162.357V36.25H160.602V27.16L161.262 27.34L157.047 33.1H156.867L152.742 27.34L153.327 27.16V36.25H151.557ZM164.668 36.25V25.075H172.033V26.65H166.438V29.86H171.733V31.435H166.438V34.675H172.033V36.25H164.668Z" fill="black"/>
<path d="M80.5 38.875H172.528V39.475H80.5V38.875Z" fill="black"/>
</g>
<defs>
<clipPath id="clip0_10313_1828">
<rect x="0.5" y="0.25" width="507.5" height="60" rx="12" fill="white"/>
</clipPath>
</defs>
</svg>
