<svg width="56" height="58" viewBox="0 0 56 58" fill="none" xmlns="http://www.w3.org/2000/svg">
<path d="M55.6172 28.9458L52.3359 24.7349L47.0312 14.1802C46.8854 13.8885 46.6758 13.6606 46.4023 13.4966C46.1289 13.3325 45.8099 13.2505 45.4453 13.2505H37.9531V11.4458C37.9531 10.9718 37.7799 10.5617 37.4336 10.2153C37.0872 9.86898 36.6771 9.6958 36.2031 9.6958H6.78125C6.27083 9.6958 5.84245 9.86898 5.49609 10.2153C5.14974 10.5617 4.97656 10.9718 4.97656 11.4458C4.97656 11.9562 5.14974 12.3846 5.49609 12.731C5.84245 13.0773 6.27083 13.2505 6.78125 13.2505H34.3984V25.5552C34.3984 26.0656 34.5716 26.494 34.918 26.8403C35.2643 27.1867 35.6927 27.3599 36.2031 27.3599H49.875L52.4453 30.6411V39.7739H49.1641C48.763 38.2427 47.9336 36.9666 46.6758 35.9458C45.418 34.925 43.9505 34.4146 42.2734 34.4146C40.6328 34.4146 39.1836 34.925 37.9258 35.9458C36.668 36.9666 35.8385 38.2427 35.4375 39.7739H25.0469C24.6458 38.2427 23.8164 36.9666 22.5586 35.9458C21.3008 34.925 19.8333 34.4146 18.1562 34.4146C16.5156 34.4146 15.0664 34.925 13.8086 35.9458C12.5508 36.9666 11.7214 38.2427 11.3203 39.7739H6.78125C6.27083 39.7739 5.84245 39.9471 5.49609 40.2935C5.14974 40.6398 4.97656 41.05 4.97656 41.5239C4.97656 41.9979 5.14974 42.408 5.49609 42.7544C5.84245 43.1007 6.27083 43.2739 6.78125 43.2739H11.375C11.776 44.8052 12.6055 46.063 13.8633 47.0474C15.1211 48.0317 16.5521 48.5239 18.1562 48.5239C19.7969 48.5239 21.2461 48.0317 22.5039 47.0474C23.7617 46.063 24.5911 44.8052 24.9922 43.2739H35.4922C35.8932 44.8052 36.7227 46.063 37.9805 47.0474C39.2383 48.0317 40.6693 48.5239 42.2734 48.5239C43.9141 48.5239 45.3633 48.0317 46.6211 47.0474C47.8789 46.063 48.7083 44.8052 49.1094 43.2739H54.25C54.724 43.2739 55.1341 43.1007 55.4805 42.7544C55.8268 42.408 56 41.9979 56 41.5239V30.0396C56 29.8573 55.9727 29.675 55.918 29.4927C55.8633 29.3104 55.763 29.1281 55.6172 28.9458ZM44.4062 16.7505L47.9062 23.8052H37.9531V16.7505H44.4062ZM18.1562 44.9692C17.2083 44.9692 16.388 44.632 15.6953 43.9575C15.0026 43.283 14.6562 42.4536 14.6562 41.4692C14.6562 40.4849 15.0026 39.6463 15.6953 38.9536C16.388 38.2609 17.2083 37.9146 18.1562 37.9146C19.1406 37.9146 19.9792 38.2609 20.6719 38.9536C21.3646 39.6463 21.7109 40.4849 21.7109 41.4692C21.7109 42.4536 21.3646 43.283 20.6719 43.9575C19.9792 44.632 19.1406 44.9692 18.1562 44.9692ZM42.2734 44.9692C41.3255 44.9692 40.5052 44.632 39.8125 43.9575C39.1198 43.283 38.7734 42.4536 38.7734 41.4692C38.7734 40.4849 39.1198 39.6463 39.8125 38.9536C40.5052 38.2609 41.3255 37.9146 42.2734 37.9146C43.2578 37.9146 44.0964 38.2609 44.7891 38.9536C45.4818 39.6463 45.8281 40.4849 45.8281 41.4692C45.8281 42.4536 45.4818 43.283 44.7891 43.9575C44.0964 44.632 43.2578 44.9692 42.2734 44.9692ZM4.64844 30.8052C4.17448 30.8052 3.76432 30.9784 3.41797 31.3247C3.07161 31.6711 2.89844 32.0812 2.89844 32.5552C2.89844 33.0656 3.07161 33.494 3.41797 33.8403C3.76432 34.1867 4.17448 34.3599 4.64844 34.3599H12.7422C13.2526 34.3599 13.681 34.1867 14.0273 33.8403C14.3737 33.494 14.5469 33.0656 14.5469 32.5552C14.5469 32.0812 14.3737 31.6711 14.0273 31.3247C13.681 30.9784 13.2526 30.8052 12.7422 30.8052H4.64844ZM16.8438 23.8599C17.3177 23.8599 17.7279 24.033 18.0742 24.3794C18.4206 24.7257 18.5938 25.1541 18.5938 25.6646C18.5938 26.1385 18.4206 26.5487 18.0742 26.895C17.7279 27.2414 17.3177 27.4146 16.8438 27.4146H1.75C1.27604 27.4146 0.865885 27.2414 0.519531 26.895C0.173177 26.5487 0 26.1385 0 25.6646C0 25.1541 0.173177 24.7257 0.519531 24.3794C0.865885 24.033 1.27604 23.8599 1.75 23.8599H16.8438ZM4.64844 16.9146C4.17448 16.9146 3.76432 17.0877 3.41797 17.4341C3.07161 17.7804 2.89844 18.2088 2.89844 18.7192C2.89844 19.1932 3.07161 19.6034 3.41797 19.9497C3.76432 20.2961 4.17448 20.4692 4.64844 20.4692H19.6875C20.1979 20.4692 20.6263 20.2961 20.9727 19.9497C21.319 19.6034 21.4922 19.1932 21.4922 18.7192C21.4922 18.2088 21.319 17.7804 20.9727 17.4341C20.6263 17.0877 20.1979 16.9146 19.6875 16.9146H4.64844ZM55.6172 28.9458L52.3359 24.7349L47.0312 14.1802C46.8854 13.8885 46.6758 13.6606 46.4023 13.4966C46.1289 13.3325 45.8099 13.2505 45.4453 13.2505H37.9531V11.4458C37.9531 10.9718 37.7799 10.5617 37.4336 10.2153C37.0872 9.86898 36.6771 9.6958 36.2031 9.6958H6.78125C6.27083 9.6958 5.84245 9.86898 5.49609 10.2153C5.14974 10.5617 4.97656 10.9718 4.97656 11.4458C4.97656 11.9562 5.14974 12.3846 5.49609 12.731C5.84245 13.0773 6.27083 13.2505 6.78125 13.2505H34.3984V25.5552C34.3984 26.0656 34.5716 26.494 34.918 26.8403C35.2643 27.1867 35.6927 27.3599 36.2031 27.3599H49.875L52.4453 30.6411V39.7739H49.1641C48.763 38.2427 47.9336 36.9666 46.6758 35.9458C45.418 34.925 43.9505 34.4146 42.2734 34.4146C40.6328 34.4146 39.1836 34.925 37.9258 35.9458C36.668 36.9666 35.8385 38.2427 35.4375 39.7739H25.0469C24.6458 38.2427 23.8164 36.9666 22.5586 35.9458C21.3008 34.925 19.8333 34.4146 18.1562 34.4146C16.5156 34.4146 15.0664 34.925 13.8086 35.9458C12.5508 36.9666 11.7214 38.2427 11.3203 39.7739H6.78125C6.27083 39.7739 5.84245 39.9471 5.49609 40.2935C5.14974 40.6398 4.97656 41.05 4.97656 41.5239C4.97656 41.9979 5.14974 42.408 5.49609 42.7544C5.84245 43.1007 6.27083 43.2739 6.78125 43.2739H11.375C11.776 44.8052 12.6055 46.063 13.8633 47.0474C15.1211 48.0317 16.5521 48.5239 18.1562 48.5239C19.7969 48.5239 21.2461 48.0317 22.5039 47.0474C23.7617 46.063 24.5911 44.8052 24.9922 43.2739H35.4922C35.8932 44.8052 36.7227 46.063 37.9805 47.0474C39.2383 48.0317 40.6693 48.5239 42.2734 48.5239C43.9141 48.5239 45.3633 48.0317 46.6211 47.0474C47.8789 46.063 48.7083 44.8052 49.1094 43.2739H54.25C54.724 43.2739 55.1341 43.1007 55.4805 42.7544C55.8268 42.408 56 41.9979 56 41.5239V30.0396C56 29.8573 55.9727 29.675 55.918 29.4927C55.8633 29.3104 55.763 29.1281 55.6172 28.9458ZM44.4062 16.7505L47.9062 23.8052H37.9531V16.7505H44.4062ZM18.1562 44.9692C17.2083 44.9692 16.388 44.632 15.6953 43.9575C15.0026 43.283 14.6562 42.4536 14.6562 41.4692C14.6562 40.4849 15.0026 39.6463 15.6953 38.9536C16.388 38.2609 17.2083 37.9146 18.1562 37.9146C19.1406 37.9146 19.9792 38.2609 20.6719 38.9536C21.3646 39.6463 21.7109 40.4849 21.7109 41.4692C21.7109 42.4536 21.3646 43.283 20.6719 43.9575C19.9792 44.632 19.1406 44.9692 18.1562 44.9692ZM42.2734 44.9692C41.3255 44.9692 40.5052 44.632 39.8125 43.9575C39.1198 43.283 38.7734 42.4536 38.7734 41.4692C38.7734 40.4849 39.1198 39.6463 39.8125 38.9536C40.5052 38.2609 41.3255 37.9146 42.2734 37.9146C43.2578 37.9146 44.0964 38.2609 44.7891 38.9536C45.4818 39.6463 45.8281 40.4849 45.8281 41.4692C45.8281 42.4536 45.4818 43.283 44.7891 43.9575C44.0964 44.632 43.2578 44.9692 42.2734 44.9692ZM4.64844 30.8052C4.17448 30.8052 3.76432 30.9784 3.41797 31.3247C3.07161 31.6711 2.89844 32.0812 2.89844 32.5552C2.89844 33.0656 3.07161 33.494 3.41797 33.8403C3.76432 34.1867 4.17448 34.3599 4.64844 34.3599H12.7422C13.2526 34.3599 13.681 34.1867 14.0273 33.8403C14.3737 33.494 14.5469 33.0656 14.5469 32.5552C14.5469 32.0812 14.3737 31.6711 14.0273 31.3247C13.681 30.9784 13.2526 30.8052 12.7422 30.8052H4.64844ZM16.8438 23.8599C17.3177 23.8599 17.7279 24.033 18.0742 24.3794C18.4206 24.7257 18.5938 25.1541 18.5938 25.6646C18.5938 26.1385 18.4206 26.5487 18.0742 26.895C17.7279 27.2414 17.3177 27.4146 16.8438 27.4146H1.75C1.27604 27.4146 0.865885 27.2414 0.519531 26.895C0.173177 26.5487 0 26.1385 0 25.6646C0 25.1541 0.173177 24.7257 0.519531 24.3794C0.865885 24.033 1.27604 23.8599 1.75 23.8599H16.8438ZM4.64844 16.9146C4.17448 16.9146 3.76432 17.0877 3.41797 17.4341C3.07161 17.7804 2.89844 18.2088 2.89844 18.7192C2.89844 19.1932 3.07161 19.6034 3.41797 19.9497C3.76432 20.2961 4.17448 20.4692 4.64844 20.4692H19.6875C20.1979 20.4692 20.6263 20.2961 20.9727 19.9497C21.319 19.6034 21.4922 19.1932 21.4922 18.7192C21.4922 18.2088 21.319 17.7804 20.9727 17.4341C20.6263 17.0877 20.1979 16.9146 19.6875 16.9146H4.64844Z" fill="#2EBB77"/>
</svg>
