<svg width="56" height="58" viewBox="0 0 56 58" fill="none" xmlns="http://www.w3.org/2000/svg">
<path d="M50.4219 31.4067V20.688C50.4219 20.5422 50.4036 20.3963 50.3672 20.2505C50.3307 20.1047 50.276 19.9771 50.2031 19.8677L41.0703 4.66455C40.6328 3.93538 40.0221 3.34294 39.2383 2.88721C38.4544 2.43148 37.625 2.20361 36.75 2.20361H13.6719C12.7969 2.20361 11.9766 2.43148 11.2109 2.88721C10.4453 3.34294 9.82552 3.93538 9.35156 4.66455L0.273438 19.8677C0.200521 19.9771 0.136719 20.1047 0.0820312 20.2505C0.0273438 20.3963 0 20.5422 0 20.688V47.5942C0 48.9797 0.501302 50.1646 1.50391 51.1489C2.50651 52.1333 3.70052 52.6255 5.08594 52.6255H29.2031C30.4792 53.6828 31.9284 54.5122 33.5508 55.1138C35.1732 55.7153 36.8776 56.0161 38.6641 56.0161C40.7422 56.0161 42.7109 55.6151 44.5703 54.813C46.3932 54.0109 47.9883 52.9263 49.3555 51.5591C50.7227 50.1919 51.8073 48.5968 52.6094 46.7739C53.4115 44.9146 53.8125 42.9458 53.8125 40.8677C53.8125 39.0812 53.5117 37.3768 52.9102 35.7544C52.3086 34.132 51.4792 32.6828 50.4219 31.4067ZM26.9062 5.59424H36.75C37.0417 5.59424 37.3151 5.66716 37.5703 5.81299C37.8255 5.95882 38.0443 6.15934 38.2266 6.41455L45.7734 19.0474H26.9062V5.59424ZM12.25 6.41455C12.3958 6.15934 12.5964 5.95882 12.8516 5.81299C13.1068 5.66716 13.3802 5.59424 13.6719 5.59424H23.5703V19.0474H4.64844L12.25 6.41455ZM3.39062 47.5942V22.3833H47.0859V28.2896C45.8828 27.4875 44.5703 26.8677 43.1484 26.4302C41.7266 25.9927 40.2318 25.7739 38.6641 25.7739C36.5859 25.7739 34.6354 26.1567 32.8125 26.9224C30.9531 27.7244 29.3398 28.8091 27.9727 30.1763C26.6055 31.5435 25.5208 33.1567 24.7188 35.0161C23.9531 36.839 23.5703 38.7896 23.5703 40.8677C23.5703 42.4354 23.7891 43.9302 24.2266 45.3521C24.6641 46.7739 25.2839 48.0864 26.0859 49.2896H5.08594C4.61198 49.2896 4.21094 49.1255 3.88281 48.7974C3.55469 48.4692 3.39062 48.0682 3.39062 47.5942ZM38.6641 52.6255C37.0599 52.6255 35.5286 52.3156 34.0703 51.6958C32.6484 51.076 31.4089 50.2375 30.3516 49.1802C29.2943 48.1229 28.4557 46.8833 27.8359 45.4614C27.2161 44.0031 26.9062 42.4718 26.9062 40.8677C26.9062 39.2635 27.2161 37.7323 27.8359 36.2739C28.4557 34.8521 29.2943 33.6125 30.3516 32.5552C31.4089 31.4979 32.6484 30.6593 34.0703 30.0396C35.5286 29.4198 37.0599 29.1099 38.6641 29.1099C40.2682 29.1099 41.7995 29.4198 43.2578 30.0396C44.6797 30.6593 45.9193 31.4979 46.9766 32.5552C48.0339 33.6125 48.8724 34.8521 49.4922 36.2739C50.112 37.7323 50.4219 39.2635 50.4219 40.8677C50.4219 42.4718 50.112 44.0031 49.4922 45.4614C48.8724 46.8833 48.0339 48.1229 46.9766 49.1802C45.9193 50.2375 44.6797 51.076 43.2578 51.6958C41.7995 52.3156 40.2682 52.6255 38.6641 52.6255ZM36.9688 47.5942C36.75 47.5942 36.5404 47.5487 36.3398 47.4575C36.1393 47.3664 35.9661 47.2479 35.8203 47.1021L30.7344 42.0708C30.4062 41.7427 30.2422 41.3416 30.2422 40.8677C30.2422 40.3937 30.4062 39.9927 30.7344 39.6646C31.0625 39.3364 31.4635 39.1724 31.9375 39.1724C32.4115 39.1724 32.8125 39.3364 33.1406 39.6646L36.9688 43.5474L44.1875 36.3286C44.5156 36.0005 44.9167 35.8364 45.3906 35.8364C45.8646 35.8364 46.2656 36.0005 46.5938 36.3286C46.9219 36.6567 47.0859 37.0487 47.0859 37.5044C47.0859 37.9601 46.9219 38.3521 46.5938 38.6802L38.1719 47.1021C38.026 47.2479 37.8438 47.3664 37.625 47.4575C37.4062 47.5487 37.1875 47.5942 36.9688 47.5942ZM16.8438 30.8052H10.1172C9.64323 30.8052 9.24219 30.6411 8.91406 30.313C8.58594 29.9849 8.42188 29.5838 8.42188 29.1099C8.42188 28.6359 8.58594 28.2349 8.91406 27.9067C9.24219 27.5786 9.64323 27.4146 10.1172 27.4146H16.8438C17.2812 27.4146 17.6641 27.5786 17.9922 27.9067C18.3203 28.2349 18.4844 28.6359 18.4844 29.1099C18.4844 29.5838 18.3203 29.9849 17.9922 30.313C17.6641 30.6411 17.2812 30.8052 16.8438 30.8052ZM50.4219 31.4067V20.688C50.4219 20.5422 50.4036 20.3963 50.3672 20.2505C50.3307 20.1047 50.276 19.9771 50.2031 19.8677L41.0703 4.66455C40.6328 3.93538 40.0221 3.34294 39.2383 2.88721C38.4544 2.43148 37.625 2.20361 36.75 2.20361H13.6719C12.7969 2.20361 11.9766 2.43148 11.2109 2.88721C10.4453 3.34294 9.82552 3.93538 9.35156 4.66455L0.273438 19.8677C0.200521 19.9771 0.136719 20.1047 0.0820312 20.2505C0.0273438 20.3963 0 20.5422 0 20.688V47.5942C0 48.9797 0.501302 50.1646 1.50391 51.1489C2.50651 52.1333 3.70052 52.6255 5.08594 52.6255H29.2031C30.4792 53.6828 31.9284 54.5122 33.5508 55.1138C35.1732 55.7153 36.8776 56.0161 38.6641 56.0161C40.7422 56.0161 42.7109 55.6151 44.5703 54.813C46.3932 54.0109 47.9883 52.9263 49.3555 51.5591C50.7227 50.1919 51.8073 48.5968 52.6094 46.7739C53.4115 44.9146 53.8125 42.9458 53.8125 40.8677C53.8125 39.0812 53.5117 37.3768 52.9102 35.7544C52.3086 34.132 51.4792 32.6828 50.4219 31.4067ZM26.9062 5.59424H36.75C37.0417 5.59424 37.3151 5.66716 37.5703 5.81299C37.8255 5.95882 38.0443 6.15934 38.2266 6.41455L45.7734 19.0474H26.9062V5.59424ZM12.25 6.41455C12.3958 6.15934 12.5964 5.95882 12.8516 5.81299C13.1068 5.66716 13.3802 5.59424 13.6719 5.59424H23.5703V19.0474H4.64844L12.25 6.41455ZM3.39062 47.5942V22.3833H47.0859V28.2896C45.8828 27.4875 44.5703 26.8677 43.1484 26.4302C41.7266 25.9927 40.2318 25.7739 38.6641 25.7739C36.5859 25.7739 34.6354 26.1567 32.8125 26.9224C30.9531 27.7244 29.3398 28.8091 27.9727 30.1763C26.6055 31.5435 25.5208 33.1567 24.7188 35.0161C23.9531 36.839 23.5703 38.7896 23.5703 40.8677C23.5703 42.4354 23.7891 43.9302 24.2266 45.3521C24.6641 46.7739 25.2839 48.0864 26.0859 49.2896H5.08594C4.61198 49.2896 4.21094 49.1255 3.88281 48.7974C3.55469 48.4692 3.39062 48.0682 3.39062 47.5942ZM38.6641 52.6255C37.0599 52.6255 35.5286 52.3156 34.0703 51.6958C32.6484 51.076 31.4089 50.2375 30.3516 49.1802C29.2943 48.1229 28.4557 46.8833 27.8359 45.4614C27.2161 44.0031 26.9062 42.4718 26.9062 40.8677C26.9062 39.2635 27.2161 37.7323 27.8359 36.2739C28.4557 34.8521 29.2943 33.6125 30.3516 32.5552C31.4089 31.4979 32.6484 30.6593 34.0703 30.0396C35.5286 29.4198 37.0599 29.1099 38.6641 29.1099C40.2682 29.1099 41.7995 29.4198 43.2578 30.0396C44.6797 30.6593 45.9193 31.4979 46.9766 32.5552C48.0339 33.6125 48.8724 34.8521 49.4922 36.2739C50.112 37.7323 50.4219 39.2635 50.4219 40.8677C50.4219 42.4718 50.112 44.0031 49.4922 45.4614C48.8724 46.8833 48.0339 48.1229 46.9766 49.1802C45.9193 50.2375 44.6797 51.076 43.2578 51.6958C41.7995 52.3156 40.2682 52.6255 38.6641 52.6255ZM36.9688 47.5942C36.75 47.5942 36.5404 47.5487 36.3398 47.4575C36.1393 47.3664 35.9661 47.2479 35.8203 47.1021L30.7344 42.0708C30.4062 41.7427 30.2422 41.3416 30.2422 40.8677C30.2422 40.3937 30.4062 39.9927 30.7344 39.6646C31.0625 39.3364 31.4635 39.1724 31.9375 39.1724C32.4115 39.1724 32.8125 39.3364 33.1406 39.6646L36.9688 43.5474L44.1875 36.3286C44.5156 36.0005 44.9167 35.8364 45.3906 35.8364C45.8646 35.8364 46.2656 36.0005 46.5938 36.3286C46.9219 36.6567 47.0859 37.0487 47.0859 37.5044C47.0859 37.9601 46.9219 38.3521 46.5938 38.6802L38.1719 47.1021C38.026 47.2479 37.8438 47.3664 37.625 47.4575C37.4062 47.5487 37.1875 47.5942 36.9688 47.5942ZM16.8438 30.8052H10.1172C9.64323 30.8052 9.24219 30.6411 8.91406 30.313C8.58594 29.9849 8.42188 29.5838 8.42188 29.1099C8.42188 28.6359 8.58594 28.2349 8.91406 27.9067C9.24219 27.5786 9.64323 27.4146 10.1172 27.4146H16.8438C17.2812 27.4146 17.6641 27.5786 17.9922 27.9067C18.3203 28.2349 18.4844 28.6359 18.4844 29.1099C18.4844 29.5838 18.3203 29.9849 17.9922 30.313C17.6641 30.6411 17.2812 30.8052 16.8438 30.8052ZM49.4375 31.7349V20.688C49.4375 20.6515 49.4284 20.5968 49.4102 20.5239C49.3919 20.451 49.3646 20.3963 49.3281 20.3599L40.25 5.21143C39.8854 4.59163 39.3932 4.10856 38.7734 3.76221C38.1536 3.41585 37.4792 3.24268 36.75 3.24268H13.6719C12.9792 3.24268 12.3229 3.41585 11.7031 3.76221C11.0833 4.10856 10.5911 4.59163 10.2266 5.21143L1.14844 20.3599C1.11198 20.3963 1.08464 20.451 1.06641 20.5239C1.04818 20.5968 1.03906 20.6515 1.03906 20.688V47.5942C1.03906 48.688 1.43099 49.6359 2.21484 50.438C2.9987 51.2401 3.95573 51.6411 5.08594 51.6411H29.5312L29.8047 51.8599C31.0078 52.8442 32.3659 53.6099 33.8789 54.1567C35.3919 54.7036 36.987 54.9771 38.6641 54.9771C40.5964 54.9771 42.4193 54.6125 44.1328 53.8833C45.8464 53.1541 47.3503 52.1424 48.6445 50.8481C49.9388 49.5539 50.9505 48.05 51.6797 46.3364C52.4089 44.6229 52.7734 42.8 52.7734 40.8677C52.7734 39.1906 52.5 37.5955 51.9531 36.0825C51.4062 34.5695 50.6406 33.2114 49.6562 32.0083L49.4375 31.7349ZM41.0703 4.66455L50.2031 19.8677C50.276 19.9771 50.3307 20.1047 50.3672 20.2505C50.4036 20.3963 50.4219 20.5422 50.4219 20.688V31.4067C51.4792 32.6828 52.3086 34.132 52.9102 35.7544C53.5117 37.3768 53.8125 39.0812 53.8125 40.8677C53.8125 42.9458 53.4115 44.9146 52.6094 46.7739C51.8073 48.5968 50.7227 50.1919 49.3555 51.5591C47.9883 52.9263 46.3932 54.0109 44.5703 54.813C42.7109 55.6151 40.7422 56.0161 38.6641 56.0161C36.8776 56.0161 35.1732 55.7153 33.5508 55.1138C31.9284 54.5122 30.4792 53.6828 29.2031 52.6255H5.08594C3.70052 52.6255 2.50651 52.1333 1.50391 51.1489C0.501302 50.1646 0 48.9797 0 47.5942V20.688C0 20.5422 0.0273438 20.3963 0.0820312 20.2505C0.136719 20.1047 0.200521 19.9771 0.273438 19.8677L9.35156 4.66455C9.82552 3.93538 10.4453 3.34294 11.2109 2.88721C11.9766 2.43148 12.7969 2.20361 13.6719 2.20361H36.75C37.625 2.20361 38.4544 2.43148 39.2383 2.88721C40.0221 3.34294 40.6328 3.93538 41.0703 4.66455ZM25.9219 4.60986V20.0317H47.5234L39.0469 5.86768C38.8281 5.46663 38.5091 5.15674 38.0898 4.93799C37.6706 4.71924 37.224 4.60986 36.75 4.60986H25.9219ZM12.25 6.41455C12.3958 6.15934 12.5964 5.95882 12.8516 5.81299C13.1068 5.66716 13.3802 5.59424 13.6719 5.59424H23.5703V19.0474H4.64844L12.25 6.41455ZM11.375 5.86768L2.89844 20.0317H24.5547V4.60986H13.6719C13.1979 4.60986 12.7604 4.71924 12.3594 4.93799C11.9583 5.15674 11.6302 5.46663 11.375 5.86768ZM2.40625 21.3989V47.5942C2.40625 48.3234 2.66146 48.9523 3.17188 49.481C3.68229 50.0096 4.32031 50.2739 5.08594 50.2739H28L26.9062 48.688C26.1771 47.5942 25.6029 46.382 25.1836 45.0513C24.7643 43.7205 24.5547 42.326 24.5547 40.8677C24.5547 38.9354 24.9193 37.1125 25.6484 35.3989C26.3776 33.6854 27.3893 32.1815 28.6836 30.8872C29.9779 29.5929 31.4818 28.5812 33.1953 27.8521C34.9089 27.1229 36.7318 26.7583 38.6641 26.7583C40.1224 26.7583 41.5169 26.9679 42.8477 27.3872C44.1784 27.8065 45.3906 28.3807 46.4844 29.1099L48.0703 30.2036V21.3989H2.40625ZM36.9688 44.9692L32.4297 40.3755C32.2839 40.2661 32.1198 40.2114 31.9375 40.2114C31.7552 40.2114 31.5911 40.2661 31.4453 40.3755C31.3359 40.5213 31.2812 40.6854 31.2812 40.8677C31.2812 41.05 31.3359 41.214 31.4453 41.3599L36.5312 46.3911C36.5677 46.464 36.6315 46.5187 36.7227 46.5552C36.8138 46.5916 36.8958 46.6099 36.9688 46.6099C37.0781 46.6099 37.1693 46.5916 37.2422 46.5552C37.3151 46.5187 37.388 46.464 37.4609 46.3911L45.8828 37.9692C45.9922 37.8599 46.0469 37.7049 46.0469 37.5044C46.0469 37.3039 45.9922 37.1489 45.8828 37.0396C45.737 36.8937 45.5729 36.8208 45.3906 36.8208C45.2083 36.8208 45.0443 36.8937 44.8984 37.0396L36.9688 44.9692ZM26.9062 19.0474V5.59424H36.75C37.0417 5.59424 37.3151 5.66716 37.5703 5.81299C37.8255 5.95882 38.0443 6.15934 38.2266 6.41455L45.7734 19.0474H26.9062ZM46.0469 27.688C44.9531 27.0682 43.7865 26.5942 42.5469 26.2661C41.3073 25.938 40.013 25.7739 38.6641 25.7739C36.5859 25.7739 34.6354 26.1567 32.8125 26.9224C30.9531 27.7244 29.3398 28.8091 27.9727 30.1763C26.6055 31.5435 25.5208 33.1567 24.7188 35.0161C23.9531 36.839 23.5703 38.7896 23.5703 40.8677C23.5703 42.2166 23.7344 43.5109 24.0625 44.7505C24.3906 45.9901 24.8646 47.1567 25.4844 48.2505C25.5938 48.4328 25.694 48.606 25.7852 48.77C25.8763 48.9341 25.9766 49.1073 26.0859 49.2896H5.08594C4.61198 49.2896 4.21094 49.1255 3.88281 48.7974C3.55469 48.4692 3.39062 48.0682 3.39062 47.5942V22.3833H47.0859V28.2896C46.9036 28.1802 46.7305 28.0799 46.5664 27.9888C46.4023 27.8976 46.2292 27.7974 46.0469 27.688ZM38.6641 53.6099C36.9141 53.6099 35.2552 53.2817 33.6875 52.6255C32.1562 51.9692 30.8073 51.0578 29.6406 49.8911C28.474 48.7244 27.5625 47.3755 26.9062 45.8442C26.25 44.2765 25.9219 42.6177 25.9219 40.8677C25.9219 39.1177 26.25 37.4588 26.9062 35.8911C27.5625 34.3599 28.474 33.0109 29.6406 31.8442C30.8073 30.6776 32.1562 29.7661 33.6875 29.1099C35.2552 28.4536 36.9141 28.1255 38.6641 28.1255C40.4141 28.1255 42.0729 28.4536 43.6406 29.1099C45.1719 29.7661 46.5208 30.6776 47.6875 31.8442C48.8542 33.0109 49.7656 34.3599 50.4219 35.8911C51.0781 37.4588 51.4062 39.1177 51.4062 40.8677C51.4062 42.6177 51.0781 44.2765 50.4219 45.8442C49.7656 47.3755 48.8542 48.7244 47.6875 49.8911C46.5208 51.0578 45.1719 51.9692 43.6406 52.6255C42.0729 53.2817 40.4141 53.6099 38.6641 53.6099ZM36.9688 43.5474L44.1875 36.3286C44.5156 36.0005 44.9167 35.8364 45.3906 35.8364C45.8646 35.8364 46.2656 36.0005 46.5938 36.3286C46.9219 36.6567 47.0859 37.0487 47.0859 37.5044C47.0859 37.9601 46.9219 38.3521 46.5938 38.6802L38.1719 47.1021C38.026 47.2479 37.8438 47.3664 37.625 47.4575C37.4062 47.5487 37.1875 47.5942 36.9688 47.5942C36.75 47.5942 36.5404 47.5487 36.3398 47.4575C36.1393 47.3664 35.9661 47.2479 35.8203 47.1021L30.7344 42.0708C30.4062 41.7427 30.2422 41.3416 30.2422 40.8677C30.2422 40.3937 30.4062 39.9927 30.7344 39.6646C31.0625 39.3364 31.4635 39.1724 31.9375 39.1724C32.4115 39.1724 32.8125 39.3364 33.1406 39.6646L36.9688 43.5474ZM10.1172 29.7661C9.9349 29.7661 9.77083 29.7023 9.625 29.5747C9.47917 29.4471 9.40625 29.2922 9.40625 29.1099C9.40625 28.9276 9.47917 28.7726 9.625 28.645C9.77083 28.5174 9.9349 28.4536 10.1172 28.4536H16.8438C17.026 28.4536 17.181 28.5174 17.3086 28.645C17.4362 28.7726 17.5 28.9276 17.5 29.1099C17.5 29.2922 17.4362 29.4471 17.3086 29.5747C17.181 29.7023 17.026 29.7661 16.8438 29.7661H10.1172ZM26.9062 40.8677C26.9062 42.4718 27.2161 44.0031 27.8359 45.4614C28.4557 46.8833 29.2943 48.1229 30.3516 49.1802C31.4089 50.2375 32.6484 51.076 34.0703 51.6958C35.5286 52.3156 37.0599 52.6255 38.6641 52.6255C40.2682 52.6255 41.7995 52.3156 43.2578 51.6958C44.6797 51.076 45.9193 50.2375 46.9766 49.1802C48.0339 48.1229 48.8724 46.8833 49.4922 45.4614C50.112 44.0031 50.4219 42.4718 50.4219 40.8677C50.4219 39.2635 50.112 37.7323 49.4922 36.2739C48.8724 34.8521 48.0339 33.6125 46.9766 32.5552C45.9193 31.4979 44.6797 30.6593 43.2578 30.0396C41.7995 29.4198 40.2682 29.1099 38.6641 29.1099C37.0599 29.1099 35.5286 29.4198 34.0703 30.0396C32.6484 30.6593 31.4089 31.4979 30.3516 32.5552C29.2943 33.6125 28.4557 34.8521 27.8359 36.2739C27.2161 37.7323 26.9062 39.2635 26.9062 40.8677ZM10.1172 30.8052H16.8438C17.2812 30.8052 17.6641 30.6411 17.9922 30.313C18.3203 29.9849 18.4844 29.5838 18.4844 29.1099C18.4844 28.6359 18.3203 28.2349 17.9922 27.9067C17.6641 27.5786 17.2812 27.4146 16.8438 27.4146H10.1172C9.64323 27.4146 9.24219 27.5786 8.91406 27.9067C8.58594 28.2349 8.42188 28.6359 8.42188 29.1099C8.42188 29.5838 8.58594 29.9849 8.91406 30.313C9.24219 30.6411 9.64323 30.8052 10.1172 30.8052Z" fill="#2EBB77"/>
</svg>
