<svg width="330" height="241" viewBox="0 0 330 241" fill="none" xmlns="http://www.w3.org/2000/svg">
<path d="M134.181 123.89V116.13H126.421V111.61H134.181V103.89H138.701V111.61H146.421V116.13H138.701V123.89H134.181ZM151.467 123.89V119.77L159.547 111.33C161.147 109.65 162.374 108.317 163.227 107.33C164.107 106.317 164.72 105.45 165.067 104.73C165.414 104.01 165.587 103.277 165.587 102.53C165.587 101.277 165.187 100.29 164.387 99.5701C163.614 98.8501 162.614 98.4901 161.387 98.4901C160.107 98.4901 159 98.8635 158.067 99.6101C157.134 100.33 156.454 101.397 156.027 102.81L151.267 101.33C151.587 99.7568 152.24 98.3968 153.227 97.2501C154.214 96.0768 155.414 95.1835 156.827 94.5701C158.267 93.9301 159.787 93.6101 161.387 93.6101C163.307 93.6101 164.987 93.9568 166.427 94.6501C167.894 95.3435 169.027 96.3168 169.827 97.5701C170.654 98.8235 171.067 100.29 171.067 101.97C171.067 103.037 170.867 104.09 170.467 105.13C170.067 106.17 169.467 107.237 168.667 108.33C167.867 109.397 166.827 110.597 165.547 111.93L158.547 119.29H171.467V123.89H151.467ZM186.134 124.37C183.974 124.37 182.094 123.97 180.494 123.17C178.921 122.343 177.694 121.237 176.814 119.85C175.961 118.463 175.534 116.943 175.534 115.29C175.534 113.343 176.054 111.703 177.094 110.37C178.134 109.01 179.641 108.01 181.614 107.37L181.294 108.69C179.881 108.237 178.761 107.357 177.934 106.05C177.134 104.743 176.734 103.303 176.734 101.73C176.734 100.157 177.134 98.7568 177.934 97.5301C178.734 96.3035 179.841 95.3435 181.254 94.6501C182.667 93.9568 184.294 93.6101 186.134 93.6101C187.947 93.6101 189.547 93.9568 190.934 94.6501C192.347 95.3435 193.454 96.3035 194.254 97.5301C195.081 98.7568 195.494 100.157 195.494 101.73C195.494 103.33 195.081 104.783 194.254 106.09C193.454 107.37 192.347 108.25 190.934 108.73L190.654 107.33C192.627 108.023 194.134 109.05 195.174 110.41C196.214 111.743 196.734 113.383 196.734 115.33C196.734 116.983 196.294 118.503 195.414 119.89C194.561 121.25 193.334 122.343 191.734 123.17C190.161 123.97 188.294 124.37 186.134 124.37ZM186.134 119.77C187.174 119.77 188.081 119.583 188.854 119.21C189.627 118.81 190.227 118.263 190.654 117.57C191.081 116.85 191.294 116.037 191.294 115.13C191.294 114.197 191.081 113.397 190.654 112.73C190.227 112.037 189.627 111.503 188.854 111.13C188.081 110.73 187.174 110.53 186.134 110.53C185.094 110.53 184.187 110.73 183.414 111.13C182.667 111.503 182.081 112.037 181.654 112.73C181.227 113.397 181.014 114.197 181.014 115.13C181.014 116.037 181.227 116.85 181.654 117.57C182.081 118.263 182.667 118.81 183.414 119.21C184.187 119.583 185.094 119.77 186.134 119.77ZM186.134 105.93C186.907 105.93 187.587 105.757 188.174 105.41C188.761 105.063 189.214 104.61 189.534 104.05C189.881 103.463 190.054 102.797 190.054 102.05C190.054 101.303 189.881 100.65 189.534 100.09C189.214 99.5035 188.761 99.0501 188.174 98.7301C187.587 98.3835 186.907 98.2101 186.134 98.2101C185.361 98.2101 184.667 98.3835 184.054 98.7301C183.467 99.0501 183.001 99.5035 182.654 100.09C182.334 100.65 182.174 101.303 182.174 102.05C182.174 102.797 182.334 103.463 182.654 104.05C183.001 104.61 183.467 105.063 184.054 105.41C184.667 105.757 185.361 105.93 186.134 105.93Z" fill="white"/>
<path d="M117.799 162.13C116.733 162.13 115.746 161.937 114.839 161.55C113.946 161.163 113.159 160.623 112.479 159.93C111.813 159.237 111.293 158.423 110.919 157.49C110.546 156.557 110.359 155.537 110.359 154.43C110.359 153.323 110.539 152.303 110.899 151.37C111.273 150.423 111.793 149.61 112.459 148.93C113.139 148.237 113.933 147.703 114.839 147.33C115.746 146.943 116.733 146.75 117.799 146.75C118.866 146.75 119.819 146.93 120.659 147.29C121.513 147.65 122.233 148.13 122.819 148.73C123.406 149.317 123.826 149.963 124.079 150.67L121.639 151.81C121.359 151.063 120.886 150.45 120.219 149.97C119.553 149.477 118.746 149.23 117.799 149.23C116.866 149.23 116.039 149.45 115.319 149.89C114.613 150.33 114.059 150.937 113.659 151.71C113.273 152.483 113.079 153.39 113.079 154.43C113.079 155.47 113.273 156.383 113.659 157.17C114.059 157.943 114.613 158.55 115.319 158.99C116.039 159.43 116.866 159.65 117.799 159.65C118.746 159.65 119.553 159.41 120.219 158.93C120.886 158.437 121.359 157.817 121.639 157.07L124.079 158.21C123.826 158.917 123.406 159.57 122.819 160.17C122.233 160.757 121.513 161.23 120.659 161.59C119.819 161.95 118.866 162.13 117.799 162.13ZM131.192 162.13C130.126 162.13 129.152 161.883 128.272 161.39C127.406 160.897 126.712 160.223 126.192 159.37C125.686 158.517 125.432 157.543 125.432 156.45C125.432 155.357 125.686 154.383 126.192 153.53C126.712 152.677 127.406 152.003 128.272 151.51C129.139 151.017 130.112 150.77 131.192 150.77C132.259 150.77 133.226 151.017 134.092 151.51C134.959 152.003 135.646 152.677 136.152 153.53C136.672 154.37 136.932 155.343 136.932 156.45C136.932 157.543 136.672 158.517 136.152 159.37C135.632 160.223 134.939 160.897 134.072 161.39C133.206 161.883 132.246 162.13 131.192 162.13ZM131.192 159.73C131.779 159.73 132.292 159.59 132.732 159.31C133.186 159.03 133.539 158.643 133.792 158.15C134.059 157.643 134.192 157.077 134.192 156.45C134.192 155.81 134.059 155.25 133.792 154.77C133.539 154.277 133.186 153.89 132.732 153.61C132.292 153.317 131.779 153.17 131.192 153.17C130.592 153.17 130.066 153.317 129.612 153.61C129.159 153.89 128.799 154.277 128.532 154.77C128.279 155.25 128.152 155.81 128.152 156.45C128.152 157.077 128.279 157.643 128.532 158.15C128.799 158.643 129.159 159.03 129.612 159.31C130.066 159.59 130.592 159.73 131.192 159.73ZM138.919 161.89V146.75H141.539V161.89H138.919ZM143.958 161.89V146.75H146.578V161.89H143.958ZM154.157 162.13C153.037 162.13 152.057 161.877 151.217 161.37C150.377 160.863 149.724 160.177 149.257 159.31C148.791 158.443 148.557 157.483 148.557 156.43C148.557 155.337 148.791 154.37 149.257 153.53C149.737 152.677 150.384 152.003 151.197 151.51C152.024 151.017 152.944 150.77 153.957 150.77C154.811 150.77 155.557 150.91 156.197 151.19C156.851 151.47 157.404 151.857 157.857 152.35C158.311 152.843 158.657 153.41 158.897 154.05C159.137 154.677 159.257 155.357 159.257 156.09C159.257 156.277 159.244 156.47 159.217 156.67C159.204 156.87 159.171 157.043 159.117 157.19H150.717V155.19H157.637L156.397 156.13C156.517 155.517 156.484 154.97 156.297 154.49C156.124 154.01 155.831 153.63 155.417 153.35C155.017 153.07 154.531 152.93 153.957 152.93C153.411 152.93 152.924 153.07 152.497 153.35C152.071 153.617 151.744 154.017 151.517 154.55C151.304 155.07 151.224 155.703 151.277 156.45C151.224 157.117 151.311 157.71 151.537 158.23C151.777 158.737 152.124 159.13 152.577 159.41C153.044 159.69 153.577 159.83 154.177 159.83C154.777 159.83 155.284 159.703 155.697 159.45C156.124 159.197 156.457 158.857 156.697 158.43L158.817 159.47C158.604 159.99 158.271 160.45 157.817 160.85C157.364 161.25 156.824 161.563 156.197 161.79C155.584 162.017 154.904 162.13 154.157 162.13ZM166.483 162.13C165.403 162.13 164.43 161.883 163.563 161.39C162.71 160.883 162.037 160.203 161.543 159.35C161.05 158.483 160.803 157.51 160.803 156.43C160.803 155.35 161.05 154.383 161.543 153.53C162.037 152.677 162.71 152.003 163.563 151.51C164.43 151.017 165.403 150.77 166.483 150.77C167.257 150.77 167.977 150.91 168.643 151.19C169.31 151.457 169.883 151.83 170.363 152.31C170.857 152.777 171.21 153.337 171.423 153.99L169.123 154.99C168.923 154.443 168.583 154.003 168.103 153.67C167.637 153.337 167.097 153.17 166.483 153.17C165.91 153.17 165.397 153.31 164.943 153.59C164.503 153.87 164.157 154.257 163.903 154.75C163.65 155.243 163.523 155.81 163.523 156.45C163.523 157.09 163.65 157.657 163.903 158.15C164.157 158.643 164.503 159.03 164.943 159.31C165.397 159.59 165.91 159.73 166.483 159.73C167.11 159.73 167.657 159.563 168.123 159.23C168.59 158.897 168.923 158.45 169.123 157.89L171.423 158.93C171.21 159.543 170.863 160.097 170.383 160.59C169.903 161.07 169.33 161.45 168.663 161.73C167.997 161.997 167.27 162.13 166.483 162.13ZM178.371 162.01C177.145 162.01 176.191 161.677 175.511 161.01C174.845 160.33 174.511 159.377 174.511 158.15V153.35H172.631V151.01H172.831C173.365 151.01 173.778 150.87 174.071 150.59C174.365 150.31 174.511 149.903 174.511 149.37V148.53H177.131V151.01H179.631V153.35H177.131V158.01C177.131 158.37 177.191 158.677 177.311 158.93C177.445 159.183 177.645 159.377 177.911 159.51C178.191 159.643 178.545 159.71 178.971 159.71C179.065 159.71 179.171 159.703 179.291 159.69C179.425 159.677 179.551 159.663 179.671 159.65V161.89C179.485 161.917 179.271 161.943 179.031 161.97C178.791 161.997 178.571 162.01 178.371 162.01ZM181.673 161.89V151.01H184.293V161.89H181.673ZM181.673 149.79V146.99H184.293V149.79H181.673ZM192.032 162.13C190.966 162.13 189.992 161.883 189.112 161.39C188.246 160.897 187.552 160.223 187.032 159.37C186.526 158.517 186.272 157.543 186.272 156.45C186.272 155.357 186.526 154.383 187.032 153.53C187.552 152.677 188.246 152.003 189.112 151.51C189.979 151.017 190.952 150.77 192.032 150.77C193.099 150.77 194.066 151.017 194.932 151.51C195.799 152.003 196.486 152.677 196.992 153.53C197.512 154.37 197.772 155.343 197.772 156.45C197.772 157.543 197.512 158.517 196.992 159.37C196.472 160.223 195.779 160.897 194.912 161.39C194.046 161.883 193.086 162.13 192.032 162.13ZM192.032 159.73C192.619 159.73 193.132 159.59 193.572 159.31C194.026 159.03 194.379 158.643 194.632 158.15C194.899 157.643 195.032 157.077 195.032 156.45C195.032 155.81 194.899 155.25 194.632 154.77C194.379 154.277 194.026 153.89 193.572 153.61C193.132 153.317 192.619 153.17 192.032 153.17C191.432 153.17 190.906 153.317 190.452 153.61C189.999 153.89 189.639 154.277 189.372 154.77C189.119 155.25 188.992 155.81 188.992 156.45C188.992 157.077 189.119 157.643 189.372 158.15C189.639 158.643 189.999 159.03 190.452 159.31C190.906 159.59 191.432 159.73 192.032 159.73ZM199.759 161.89V151.01H202.219V153.15L202.019 152.77C202.272 152.117 202.686 151.623 203.259 151.29C203.846 150.943 204.526 150.77 205.299 150.77C206.099 150.77 206.806 150.943 207.419 151.29C208.046 151.637 208.532 152.123 208.879 152.75C209.226 153.363 209.399 154.077 209.399 154.89V161.89H206.779V155.51C206.779 155.03 206.686 154.617 206.499 154.27C206.312 153.923 206.052 153.657 205.719 153.47C205.399 153.27 205.019 153.17 204.579 153.17C204.152 153.17 203.772 153.27 203.439 153.47C203.106 153.657 202.846 153.923 202.659 154.27C202.472 154.617 202.379 155.03 202.379 155.51V161.89H199.759ZM215.755 162.13C214.595 162.13 213.581 161.857 212.715 161.31C211.861 160.75 211.275 159.997 210.955 159.05L212.915 158.11C213.195 158.723 213.581 159.203 214.075 159.55C214.581 159.897 215.141 160.07 215.755 160.07C216.235 160.07 216.615 159.963 216.895 159.75C217.175 159.537 217.315 159.257 217.315 158.91C217.315 158.697 217.255 158.523 217.135 158.39C217.028 158.243 216.875 158.123 216.675 158.03C216.488 157.923 216.281 157.837 216.055 157.77L214.275 157.27C213.355 157.003 212.655 156.597 212.175 156.05C211.708 155.503 211.475 154.857 211.475 154.11C211.475 153.443 211.641 152.863 211.975 152.37C212.321 151.863 212.795 151.47 213.395 151.19C214.008 150.91 214.708 150.77 215.495 150.77C216.521 150.77 217.428 151.017 218.215 151.51C219.001 152.003 219.561 152.697 219.895 153.59L217.895 154.53C217.708 154.037 217.395 153.643 216.955 153.35C216.515 153.057 216.021 152.91 215.475 152.91C215.035 152.91 214.688 153.01 214.435 153.21C214.181 153.41 214.055 153.67 214.055 153.99C214.055 154.19 214.108 154.363 214.215 154.51C214.321 154.657 214.468 154.777 214.655 154.87C214.855 154.963 215.081 155.05 215.335 155.13L217.075 155.65C217.968 155.917 218.655 156.317 219.135 156.85C219.628 157.383 219.875 158.037 219.875 158.81C219.875 159.463 219.701 160.043 219.355 160.55C219.008 161.043 218.528 161.43 217.915 161.71C217.301 161.99 216.581 162.13 215.755 162.13Z" fill="white"/>
</svg>
