<svg width="56" height="58" viewBox="0 0 56 58" fill="none" xmlns="http://www.w3.org/2000/svg">
<g clip-path="url(#clip0_8360_23526)">
<path d="M52.7188 15.8555V21.0508C53.6667 21.379 54.4505 21.9714 55.0703 22.8282C55.6901 23.685 56 24.642 56 25.6993V45.6055C56 46.9545 55.5169 48.112 54.5508 49.0782C53.5846 50.0443 52.4271 50.5274 51.0781 50.5274H46.1562V55.4493C46.1562 55.8868 45.9922 56.2696 45.6641 56.5977C45.3359 56.9258 44.9531 57.0899 44.5156 57.0899H11.4844C11.0469 57.0899 10.6641 56.9258 10.3359 56.5977C10.0078 56.2696 9.84375 55.8868 9.84375 55.4493V50.5274H4.92188C3.57292 50.5274 2.41536 50.0443 1.44922 49.0782C0.483073 48.112 0 46.9545 0 45.6055V25.6993C0 24.642 0.309896 23.685 0.929688 22.8282C1.54948 21.9714 2.33333 21.379 3.28125 21.0508V15.8555C3.28125 14.5066 3.76432 13.349 4.73047 12.3829C5.69661 11.4167 6.85417 10.9337 8.20312 10.9337H9.84375V2.73053C9.84375 2.29303 10.0078 1.91022 10.3359 1.58209C10.6641 1.25397 11.0469 1.0899 11.4844 1.0899H34.6719C34.8906 1.0899 35.1003 1.13548 35.3008 1.22662C35.5013 1.31777 35.6745 1.43626 35.8203 1.58209L45.1719 10.9337H47.7969C49.1458 10.9337 50.3034 11.4167 51.2695 12.3829C52.2357 13.349 52.7188 14.5066 52.7188 15.8555ZM47.7969 14.2149H46.1562V20.7774H49.4375V15.8555C49.4375 15.418 49.2734 15.0352 48.9453 14.7071C48.6172 14.379 48.2344 14.2149 47.7969 14.2149ZM40.5781 10.9337L36.3125 6.66803V10.9337H40.5781ZM33.0312 4.37115H13.125V20.7774H42.875V14.2149H34.6719C34.2344 14.2149 33.8516 14.0508 33.5234 13.7227C33.1953 13.3946 33.0312 13.0118 33.0312 12.5743V4.37115ZM8.20312 14.2149C7.76562 14.2149 7.38281 14.379 7.05469 14.7071C6.72656 15.0352 6.5625 15.418 6.5625 15.8555V20.7774H9.84375V14.2149H8.20312ZM13.125 53.8087H42.875V37.4024H13.125V53.8087ZM51.0781 47.2462C51.5156 47.2462 51.8984 47.0821 52.2266 46.754C52.5547 46.4258 52.7188 46.043 52.7188 45.6055V25.6993C52.7188 25.2618 52.5547 24.879 52.2266 24.5508C51.8984 24.2227 51.5156 24.0587 51.0781 24.0587H4.92188C4.48438 24.0587 4.10156 24.2227 3.77344 24.5508C3.44531 24.879 3.28125 25.2618 3.28125 25.6993V45.6055C3.28125 46.043 3.44531 46.4258 3.77344 46.754C4.10156 47.0821 4.48438 47.2462 4.92188 47.2462H9.84375V37.4024H8.20312C7.76562 37.4024 7.38281 37.2383 7.05469 36.9102C6.72656 36.5821 6.5625 36.1993 6.5625 35.7618C6.5625 35.3243 6.72656 34.9415 7.05469 34.6133C7.38281 34.2852 7.76562 34.1212 8.20312 34.1212H47.7969C48.2344 34.1212 48.6172 34.2852 48.9453 34.6133C49.2734 34.9415 49.4375 35.3243 49.4375 35.7618C49.4375 36.1993 49.2734 36.5821 48.9453 36.9102C48.6172 37.2383 48.2344 37.4024 47.7969 37.4024H46.1562V47.2462H51.0781ZM18.0469 40.6837C17.6094 40.6837 17.2266 40.8477 16.8984 41.1758C16.5703 41.504 16.4062 41.8868 16.4062 42.3243C16.4062 42.7618 16.5703 43.1446 16.8984 43.4727C17.2266 43.8008 17.6094 43.9649 18.0469 43.9649H37.9531C38.3906 43.9649 38.7734 43.8008 39.1016 43.4727C39.4297 43.1446 39.5938 42.7618 39.5938 42.3243C39.5938 41.8868 39.4297 41.504 39.1016 41.1758C38.7734 40.8477 38.3906 40.6837 37.9531 40.6837H18.0469ZM37.9531 47.2462C38.3906 47.2462 38.7734 47.4102 39.1016 47.7383C39.4297 48.0665 39.5938 48.4493 39.5938 48.8868C39.5938 49.3243 39.4297 49.7071 39.1016 50.0352C38.7734 50.3633 38.3906 50.5274 37.9531 50.5274H18.0469C17.6094 50.5274 17.2266 50.3633 16.8984 50.0352C16.5703 49.7071 16.4062 49.3243 16.4062 48.8868C16.4062 48.4493 16.5703 48.0665 16.8984 47.7383C17.2266 47.4102 17.6094 47.2462 18.0469 47.2462H37.9531ZM6.5625 28.9805C6.5625 29.418 6.72656 29.8008 7.05469 30.129C7.38281 30.4571 7.76562 30.6212 8.20312 30.6212H11.4844C11.9219 30.6212 12.3047 30.4571 12.6328 30.129C12.9609 29.8008 13.125 29.418 13.125 28.9805C13.125 28.543 12.9609 28.1602 12.6328 27.8321C12.3047 27.504 11.9219 27.3399 11.4844 27.3399H8.20312C7.76562 27.3399 7.38281 27.504 7.05469 27.8321C6.72656 28.1602 6.5625 28.543 6.5625 28.9805ZM52.7188 15.8555V21.0508C53.6667 21.379 54.4505 21.9714 55.0703 22.8282C55.6901 23.685 56 24.642 56 25.6993V45.6055C56 46.9545 55.5169 48.112 54.5508 49.0782C53.5846 50.0443 52.4271 50.5274 51.0781 50.5274H46.1562V55.4493C46.1562 55.8868 45.9922 56.2696 45.6641 56.5977C45.3359 56.9258 44.9531 57.0899 44.5156 57.0899H11.4844C11.0469 57.0899 10.6641 56.9258 10.3359 56.5977C10.0078 56.2696 9.84375 55.8868 9.84375 55.4493V50.5274H4.92188C3.57292 50.5274 2.41536 50.0443 1.44922 49.0782C0.483073 48.112 0 46.9545 0 45.6055V25.6993C0 24.642 0.309896 23.685 0.929688 22.8282C1.54948 21.9714 2.33333 21.379 3.28125 21.0508V15.8555C3.28125 14.5066 3.76432 13.349 4.73047 12.3829C5.69661 11.4167 6.85417 10.9337 8.20312 10.9337H9.84375V2.73053C9.84375 2.29303 10.0078 1.91022 10.3359 1.58209C10.6641 1.25397 11.0469 1.0899 11.4844 1.0899H34.6719C34.8906 1.0899 35.1003 1.13548 35.3008 1.22662C35.5013 1.31777 35.6745 1.43626 35.8203 1.58209L45.1719 10.9337H47.7969C49.1458 10.9337 50.3034 11.4167 51.2695 12.3829C52.2357 13.349 52.7188 14.5066 52.7188 15.8555ZM47.7969 14.2149H46.1562V20.7774H49.4375V15.8555C49.4375 15.418 49.2734 15.0352 48.9453 14.7071C48.6172 14.379 48.2344 14.2149 47.7969 14.2149ZM40.5781 10.9337L36.3125 6.66803V10.9337H40.5781ZM33.0312 4.37115H13.125V20.7774H42.875V14.2149H34.6719C34.2344 14.2149 33.8516 14.0508 33.5234 13.7227C33.1953 13.3946 33.0312 13.0118 33.0312 12.5743V4.37115ZM8.20312 14.2149C7.76562 14.2149 7.38281 14.379 7.05469 14.7071C6.72656 15.0352 6.5625 15.418 6.5625 15.8555V20.7774H9.84375V14.2149H8.20312ZM13.125 53.8087H42.875V37.4024H13.125V53.8087ZM51.0781 47.2462C51.5156 47.2462 51.8984 47.0821 52.2266 46.754C52.5547 46.4258 52.7188 46.043 52.7188 45.6055V25.6993C52.7188 25.2618 52.5547 24.879 52.2266 24.5508C51.8984 24.2227 51.5156 24.0587 51.0781 24.0587H4.92188C4.48438 24.0587 4.10156 24.2227 3.77344 24.5508C3.44531 24.879 3.28125 25.2618 3.28125 25.6993V45.6055C3.28125 46.043 3.44531 46.4258 3.77344 46.754C4.10156 47.0821 4.48438 47.2462 4.92188 47.2462H9.84375V37.4024H8.20312C7.76562 37.4024 7.38281 37.2383 7.05469 36.9102C6.72656 36.5821 6.5625 36.1993 6.5625 35.7618C6.5625 35.3243 6.72656 34.9415 7.05469 34.6133C7.38281 34.2852 7.76562 34.1212 8.20312 34.1212H47.7969C48.2344 34.1212 48.6172 34.2852 48.9453 34.6133C49.2734 34.9415 49.4375 35.3243 49.4375 35.7618C49.4375 36.1993 49.2734 36.5821 48.9453 36.9102C48.6172 37.2383 48.2344 37.4024 47.7969 37.4024H46.1562V47.2462H51.0781ZM18.0469 40.6837C17.6094 40.6837 17.2266 40.8477 16.8984 41.1758C16.5703 41.504 16.4062 41.8868 16.4062 42.3243C16.4062 42.7618 16.5703 43.1446 16.8984 43.4727C17.2266 43.8008 17.6094 43.9649 18.0469 43.9649H37.9531C38.3906 43.9649 38.7734 43.8008 39.1016 43.4727C39.4297 43.1446 39.5938 42.7618 39.5938 42.3243C39.5938 41.8868 39.4297 41.504 39.1016 41.1758C38.7734 40.8477 38.3906 40.6837 37.9531 40.6837H18.0469ZM37.9531 47.2462C38.3906 47.2462 38.7734 47.4102 39.1016 47.7383C39.4297 48.0665 39.5938 48.4493 39.5938 48.8868C39.5938 49.3243 39.4297 49.7071 39.1016 50.0352C38.7734 50.3633 38.3906 50.5274 37.9531 50.5274H18.0469C17.6094 50.5274 17.2266 50.3633 16.8984 50.0352C16.5703 49.7071 16.4062 49.3243 16.4062 48.8868C16.4062 48.4493 16.5703 48.0665 16.8984 47.7383C17.2266 47.4102 17.6094 47.2462 18.0469 47.2462H37.9531ZM6.5625 28.9805C6.5625 29.418 6.72656 29.8008 7.05469 30.129C7.38281 30.4571 7.76562 30.6212 8.20312 30.6212H11.4844C11.9219 30.6212 12.3047 30.4571 12.6328 30.129C12.9609 29.8008 13.125 29.418 13.125 28.9805C13.125 28.543 12.9609 28.1602 12.6328 27.8321C12.3047 27.504 11.9219 27.3399 11.4844 27.3399H8.20312C7.76562 27.3399 7.38281 27.504 7.05469 27.8321C6.72656 28.1602 6.5625 28.543 6.5625 28.9805Z" fill="#2EBB77"/>
</g>
<defs>
<clipPath id="clip0_8360_23526">
<rect width="56" height="57" fill="white" transform="matrix(1 0 0 -1 0 57.5899)"/>
</clipPath>
</defs>
</svg>
