<svg width="64" height="64" viewBox="0 0 64 64" fill="none" xmlns="http://www.w3.org/2000/svg">
<g clip-path="url(#clip0_8360_23387)">
<path d="M18.875 16.875C18.875 17.375 18.6875 17.8125 18.3125 18.1875C17.9375 18.5625 17.5 18.75 17 18.75C16.5 18.75 16.0625 18.5625 15.6875 18.1875C15.3125 17.8125 15.125 17.375 15.125 16.875C15.125 16.375 15.3125 15.9375 15.6875 15.5625C16.0625 15.1875 16.5 15 17 15C17.5 15 17.9375 15.1875 18.3125 15.5625C18.6875 15.9375 18.875 16.375 18.875 16.875ZM18.875 24.375C18.875 24.875 18.6875 25.3125 18.3125 25.6875C17.9375 26.0625 17.5 26.25 17 26.25C16.5 26.25 16.0625 26.0625 15.6875 25.6875C15.3125 25.3125 15.125 24.875 15.125 24.375C15.125 23.875 15.3125 23.4375 15.6875 23.0625C16.0625 22.6875 16.5 22.5 17 22.5C17.5 22.5 17.9375 22.6875 18.3125 23.0625C18.6875 23.4375 18.875 23.875 18.875 24.375ZM18.875 9.375C18.875 9.875 18.6875 10.3125 18.3125 10.6875C17.9375 11.0625 17.5 11.25 17 11.25C16.5 11.25 16.0625 11.0625 15.6875 10.6875C15.3125 10.3125 15.125 9.875 15.125 9.375C15.125 8.875 15.3125 8.4375 15.6875 8.0625C16.0625 7.6875 16.5 7.5 17 7.5C17.5 7.5 17.9375 7.6875 18.3125 8.0625C18.6875 8.4375 18.875 8.875 18.875 9.375ZM62.125 0H43.25C41.7083 0 40.3854 0.552082 39.2812 1.65625C38.1771 2.76042 37.625 4.08333 37.625 5.625V11.25H33.875V1.875C33.875 1.375 33.6875 0.9375 33.3125 0.5625C32.9375 0.1875 32.5 0 32 0H9.5C9 0 8.5625 0.1875 8.1875 0.5625C7.8125 0.9375 7.625 1.375 7.625 1.875V11.25H1.875C1.375 11.25 0.9375 11.4375 0.5625 11.8125C0.1875 12.1875 0 12.625 0 13.125V20.625C0 21.125 0.1875 21.5625 0.5625 21.9375C0.9375 22.3125 1.375 22.5 1.875 22.5H7.625V35.625C7.625 37.1667 8.17708 38.4896 9.28125 39.5938C10.3854 40.6979 11.7083 41.25 13.25 41.25H15.125V43.125C15.125 44.3333 15.4792 45.4271 16.1875 46.4062C16.8958 47.3854 17.7917 48.0625 18.875 48.4375V52.75H13.25C11.7083 52.75 10.3854 53.3021 9.28125 54.4062C8.17708 55.5104 7.625 56.8333 7.625 58.375V60.25H1.875C1.375 60.25 0.9375 60.4375 0.5625 60.8125C0.1875 61.1875 0 61.625 0 62.125C0 62.625 0.1875 63.0625 0.5625 63.4375C0.9375 63.8125 1.375 64 1.875 64H62.125C62.625 64 63.0625 63.8125 63.4375 63.4375C63.8125 63.0625 64 62.625 64 62.125C64 61.625 63.8125 61.1875 63.4375 60.8125C63.0625 60.4375 62.625 60.25 62.125 60.25H33.875V58.375C33.875 56.8333 33.3229 55.5104 32.2188 54.4062C31.1146 53.3021 29.7917 52.75 28.25 52.75H22.625V48.4375C23.7083 48.0625 24.6042 47.3854 25.3125 46.4062C26.0208 45.4271 26.375 44.3333 26.375 43.125V41.25H28.25C29.7917 41.25 31.1146 40.6979 32.2188 39.5938C33.3229 38.4896 33.875 37.1667 33.875 35.625V22.5H43.25C44.7917 22.5 46.1146 21.9479 47.2188 20.8438C48.3229 19.7396 48.875 18.4167 48.875 16.875V11.25H62.125C62.625 11.25 63.0625 11.0625 63.4375 10.6875C63.8125 10.3125 64 9.875 64 9.375V1.875C64 1.375 63.8125 0.9375 63.4375 0.5625C63.0625 0.1875 62.625 0 62.125 0ZM30.125 58.375V60.25H11.375V58.375C11.375 57.875 11.5625 57.4375 11.9375 57.0625C12.3125 56.6875 12.75 56.5 13.25 56.5H28.25C28.75 56.5 29.1875 56.6875 29.5625 57.0625C29.9375 57.4375 30.125 57.875 30.125 58.375ZM11.375 3.75H30.125V7.5H24.5C24 7.5 23.5625 7.6875 23.1875 8.0625C22.8125 8.4375 22.625 8.875 22.625 9.375C22.625 9.875 22.8125 10.3125 23.1875 10.6875C23.5625 11.0625 24 11.25 24.5 11.25H30.125V15H24.5C24 15 23.5625 15.1875 23.1875 15.5625C22.8125 15.9375 22.625 16.375 22.625 16.875C22.625 17.375 22.8125 17.8125 23.1875 18.1875C23.5625 18.5625 24 18.75 24.5 18.75H30.125V22.5H24.5C24 22.5 23.5625 22.6875 23.1875 23.0625C22.8125 23.4375 22.625 23.875 22.625 24.375C22.625 24.875 22.8125 25.3125 23.1875 25.6875C23.5625 26.0625 24 26.25 24.5 26.25H30.125V30H11.375V3.75ZM3.75 18.75V15H7.625V18.75H3.75ZM22.625 43.125C22.625 43.625 22.4375 44.0625 22.0625 44.4375C21.6875 44.8125 21.25 45 20.75 45C20.25 45 19.8125 44.8125 19.4375 44.4375C19.0625 44.0625 18.875 43.625 18.875 43.125V41.25H22.625V43.125ZM28.25 37.5H13.25C12.75 37.5 12.3125 37.3125 11.9375 36.9375C11.5625 36.5625 11.375 36.125 11.375 35.625V33.75H30.125V35.625C30.125 36.125 29.9375 36.5625 29.5625 36.9375C29.1875 37.3125 28.75 37.5 28.25 37.5ZM47 7.5C46.5 7.5 46.0625 7.6875 45.6875 8.0625C45.3125 8.4375 45.125 8.875 45.125 9.375V16.875C45.125 17.375 44.9375 17.8125 44.5625 18.1875C44.1875 18.5625 43.75 18.75 43.25 18.75H33.875V15H39.5C40 15 40.4375 14.8125 40.8125 14.4375C41.1875 14.0625 41.375 13.625 41.375 13.125V5.625C41.375 5.125 41.5625 4.6875 41.9375 4.3125C42.3125 3.9375 42.75 3.75 43.25 3.75H60.25V7.5H47Z" fill="#2EBB77"/>
</g>
<defs>
<clipPath id="clip0_8360_23387">
<rect width="64" height="64" fill="white" transform="matrix(1 0 0 -1 0 64)"/>
</clipPath>
</defs>
</svg>
