<svg width="56" height="57" viewBox="0 0 56 57" fill="none" xmlns="http://www.w3.org/2000/svg">
<path d="M16.5156 14.8555C16.5156 15.293 16.3516 15.6758 16.0234 16.004C15.6953 16.3321 15.3125 16.4962 14.875 16.4962C14.4375 16.4962 14.0547 16.3321 13.7266 16.004C13.3984 15.6758 13.2344 15.293 13.2344 14.8555C13.2344 14.418 13.3984 14.0352 13.7266 13.7071C14.0547 13.379 14.4375 13.2149 14.875 13.2149C15.3125 13.2149 15.6953 13.379 16.0234 13.7071C16.3516 14.0352 16.5156 14.418 16.5156 14.8555ZM16.5156 21.418C16.5156 21.8555 16.3516 22.2383 16.0234 22.5665C15.6953 22.8946 15.3125 23.0587 14.875 23.0587C14.4375 23.0587 14.0547 22.8946 13.7266 22.5665C13.3984 22.2383 13.2344 21.8555 13.2344 21.418C13.2344 20.9805 13.3984 20.5977 13.7266 20.2696C14.0547 19.9415 14.4375 19.7774 14.875 19.7774C15.3125 19.7774 15.6953 19.9415 16.0234 20.2696C16.3516 20.5977 16.5156 20.9805 16.5156 21.418ZM16.5156 8.29303C16.5156 8.73053 16.3516 9.11334 16.0234 9.44147C15.6953 9.76959 15.3125 9.93365 14.875 9.93365C14.4375 9.93365 14.0547 9.76959 13.7266 9.44147C13.3984 9.11334 13.2344 8.73053 13.2344 8.29303C13.2344 7.85553 13.3984 7.47272 13.7266 7.14459C14.0547 6.81647 14.4375 6.6524 14.875 6.6524C15.3125 6.6524 15.6953 6.81647 16.0234 7.14459C16.3516 7.47272 16.5156 7.85553 16.5156 8.29303ZM54.3594 0.0899048H37.8438C36.4948 0.0899048 35.3372 0.572979 34.3711 1.53912C33.4049 2.50527 32.9219 3.66282 32.9219 5.01178V9.93365H29.6406V1.73053C29.6406 1.29303 29.4766 0.910217 29.1484 0.582092C28.8203 0.253967 28.4375 0.0899048 28 0.0899048H8.3125C7.875 0.0899048 7.49219 0.253967 7.16406 0.582092C6.83594 0.910217 6.67188 1.29303 6.67188 1.73053V9.93365H1.64062C1.20312 9.93365 0.820312 10.0977 0.492188 10.4258C0.164062 10.754 0 11.1368 0 11.5743V18.1368C0 18.5743 0.164062 18.9571 0.492188 19.2852C0.820312 19.6133 1.20312 19.7774 1.64062 19.7774H6.67188V31.2618C6.67188 32.6107 7.15495 33.7683 8.12109 34.7344C9.08724 35.7006 10.2448 36.1837 11.5938 36.1837H13.2344V37.8243C13.2344 38.8816 13.5443 39.8386 14.1641 40.6954C14.7839 41.5521 15.5677 42.1446 16.5156 42.4727V46.2462H11.5938C10.2448 46.2462 9.08724 46.7292 8.12109 47.6954C7.15495 48.6615 6.67188 49.8191 6.67188 51.168V52.8087H1.64062C1.20312 52.8087 0.820312 52.9727 0.492188 53.3008C0.164062 53.629 0 54.0118 0 54.4493C0 54.8868 0.164062 55.2696 0.492188 55.5977C0.820312 55.9258 1.20312 56.0899 1.64062 56.0899H54.3594C54.7969 56.0899 55.1797 55.9258 55.5078 55.5977C55.8359 55.2696 56 54.8868 56 54.4493C56 54.0118 55.8359 53.629 55.5078 53.3008C55.1797 52.9727 54.7969 52.8087 54.3594 52.8087H29.6406V51.168C29.6406 49.8191 29.1576 48.6615 28.1914 47.6954C27.2253 46.7292 26.0677 46.2462 24.7188 46.2462H19.7969V42.4727C20.7448 42.1446 21.5286 41.5521 22.1484 40.6954C22.7682 39.8386 23.0781 38.8816 23.0781 37.8243V36.1837H24.7188C26.0677 36.1837 27.2253 35.7006 28.1914 34.7344C29.1576 33.7683 29.6406 32.6107 29.6406 31.2618V19.7774H37.8438C39.1927 19.7774 40.3503 19.2943 41.3164 18.3282C42.2826 17.362 42.7656 16.2045 42.7656 14.8555V9.93365H54.3594C54.7969 9.93365 55.1797 9.76959 55.5078 9.44147C55.8359 9.11334 56 8.73053 56 8.29303V1.73053C56 1.29303 55.8359 0.910217 55.5078 0.582092C55.1797 0.253967 54.7969 0.0899048 54.3594 0.0899048ZM26.3594 51.168V52.8087H9.95312V51.168C9.95312 50.7305 10.1172 50.3477 10.4453 50.0196C10.7734 49.6915 11.1562 49.5274 11.5938 49.5274H24.7188C25.1562 49.5274 25.5391 49.6915 25.8672 50.0196C26.1953 50.3477 26.3594 50.7305 26.3594 51.168ZM9.95312 3.37115H26.3594V6.6524H21.4375C21 6.6524 20.6172 6.81647 20.2891 7.14459C19.9609 7.47272 19.7969 7.85553 19.7969 8.29303C19.7969 8.73053 19.9609 9.11334 20.2891 9.44147C20.6172 9.76959 21 9.93365 21.4375 9.93365H26.3594V13.2149H21.4375C21 13.2149 20.6172 13.379 20.2891 13.7071C19.9609 14.0352 19.7969 14.418 19.7969 14.8555C19.7969 15.293 19.9609 15.6758 20.2891 16.004C20.6172 16.3321 21 16.4962 21.4375 16.4962H26.3594V19.7774H21.4375C21 19.7774 20.6172 19.9415 20.2891 20.2696C19.9609 20.5977 19.7969 20.9805 19.7969 21.418C19.7969 21.8555 19.9609 22.2383 20.2891 22.5665C20.6172 22.8946 21 23.0587 21.4375 23.0587H26.3594V26.3399H9.95312V3.37115ZM3.28125 16.4962V13.2149H6.67188V16.4962H3.28125ZM19.7969 37.8243C19.7969 38.2618 19.6328 38.6446 19.3047 38.9727C18.9766 39.3008 18.5938 39.4649 18.1562 39.4649C17.7188 39.4649 17.3359 39.3008 17.0078 38.9727C16.6797 38.6446 16.5156 38.2618 16.5156 37.8243V36.1837H19.7969V37.8243ZM24.7188 32.9024H11.5938C11.1562 32.9024 10.7734 32.7383 10.4453 32.4102C10.1172 32.0821 9.95312 31.6993 9.95312 31.2618V29.6212H26.3594V31.2618C26.3594 31.6993 26.1953 32.0821 25.8672 32.4102C25.5391 32.7383 25.1562 32.9024 24.7188 32.9024ZM41.125 6.6524C40.6875 6.6524 40.3047 6.81647 39.9766 7.14459C39.6484 7.47272 39.4844 7.85553 39.4844 8.29303V14.8555C39.4844 15.293 39.3203 15.6758 38.9922 16.004C38.6641 16.3321 38.2812 16.4962 37.8438 16.4962H29.6406V13.2149H34.5625C35 13.2149 35.3828 13.0508 35.7109 12.7227C36.0391 12.3946 36.2031 12.0118 36.2031 11.5743V5.01178C36.2031 4.57428 36.3672 4.19147 36.6953 3.86334C37.0234 3.53522 37.4062 3.37115 37.8438 3.37115H52.7188V6.6524H41.125Z" fill="#2EBB77"/>
</svg>
