<svg width="56" height="58" viewBox="0 0 56 58" fill="none" xmlns="http://www.w3.org/2000/svg">
<g clip-path="url(#clip0_8360_23520)">
<path d="M51.0781 10.0587C50.3854 8.34511 49.3464 6.88678 47.9609 5.68365C46.5755 4.48053 44.9896 3.66022 43.2031 3.22272L34.9453 1.14459C34.7266 1.07167 34.4896 1.06256 34.2344 1.11725C33.9792 1.17194 33.7604 1.2722 33.5781 1.41803C33.3594 1.60032 33.1953 1.80084 33.0859 2.01959C32.9766 2.23834 32.9219 2.47532 32.9219 2.73053C32.9219 4.07949 32.4388 5.23704 31.4727 6.20319C30.5065 7.16933 29.349 7.6524 28 7.6524C26.651 7.6524 25.4935 7.16933 24.5273 6.20319C23.5612 5.23704 23.0781 4.07949 23.0781 2.73053C23.0781 2.47532 23.0234 2.23834 22.9141 2.01959C22.8047 1.80084 22.6406 1.60032 22.4219 1.41803C22.2396 1.2722 22.0208 1.17194 21.7656 1.11725C21.5104 1.06256 21.2734 1.07167 21.0547 1.14459L12.7969 3.22272C10.974 3.66022 9.36068 4.48964 7.95703 5.711C6.55339 6.93235 5.50521 8.38157 4.8125 10.0587L0.109375 21.9258C0.0364583 22.1446 0 22.3633 0 22.5821C0 22.8008 0.0546875 23.0196 0.164062 23.2383C0.236979 23.4206 0.364583 23.5938 0.546875 23.7579C0.729167 23.9219 0.929688 24.0222 1.14844 24.0587L9.95312 27.0118V55.4493C9.95312 55.8868 10.1172 56.2696 10.4453 56.5977C10.7734 56.9258 11.1562 57.0899 11.5938 57.0899H44.4062C44.8438 57.0899 45.2266 56.9258 45.5547 56.5977C45.8828 56.2696 46.0469 55.8868 46.0469 55.4493V27.0118L54.8516 24.0587C55.0703 24.0222 55.2708 23.9219 55.4531 23.7579C55.6354 23.5938 55.763 23.4206 55.8359 23.2383C55.9453 23.0196 56 22.7917 56 22.5547C56 22.3178 55.9635 22.1081 55.8906 21.9258L51.0781 10.0587ZM46.0469 23.5665V15.9649C46.0469 15.5274 45.8828 15.1446 45.5547 14.8165C45.2266 14.4883 44.8438 14.3243 44.4062 14.3243C43.9688 14.3243 43.5859 14.4883 43.2578 14.8165C42.9297 15.1446 42.7656 15.5274 42.7656 15.9649V53.8087H13.2344C13.2344 53.5534 13.2344 51.4753 13.2344 47.5743C13.2344 43.7097 13.2344 39.4714 13.2344 34.8594C13.2344 30.2475 13.2344 26.0092 13.2344 22.1446C13.2344 18.2435 13.2344 16.1837 13.2344 15.9649C13.2344 15.5274 13.0703 15.1446 12.7422 14.8165C12.4141 14.4883 12.0312 14.3243 11.5938 14.3243C11.1562 14.3243 10.7734 14.4883 10.4453 14.8165C10.1172 15.1446 9.95312 15.5274 9.95312 15.9649V23.5665L3.82812 21.4883L7.875 11.3165C8.34896 10.1133 9.09635 9.07428 10.1172 8.19928C11.138 7.32428 12.3047 6.72272 13.6172 6.39459L20.0703 4.75397C20.5078 6.54042 21.4648 8.01699 22.9414 9.18365C24.418 10.3503 26.1042 10.9337 28 10.9337C29.8958 10.9337 31.582 10.3503 33.0586 9.18365C34.5352 8.01699 35.4922 6.54042 35.9297 4.75397L42.3828 6.39459C43.6589 6.72272 44.7982 7.31517 45.8008 8.17194C46.8034 9.02871 47.5417 10.0769 48.0156 11.3165L52.1719 21.543L46.0469 23.5665ZM38.8828 21.2696C38.6276 21.0508 38.3359 20.9232 38.0078 20.8868C37.6797 20.8503 37.388 20.905 37.1328 21.0508L31.9922 23.6212L29.4766 18.5352C29.3307 18.2435 29.1302 18.0157 28.875 17.8516C28.6198 17.6876 28.3281 17.6055 28 17.6055C27.6719 17.6055 27.3802 17.6876 27.125 17.8516C26.8698 18.0157 26.6693 18.2435 26.5234 18.5352L24.0078 23.6212L18.8672 21.0508C18.612 20.905 18.3203 20.8503 17.9922 20.8868C17.6641 20.9232 17.3724 21.0508 17.1172 21.2696C16.862 21.4519 16.6888 21.698 16.5977 22.0079C16.5065 22.3178 16.4974 22.6185 16.5703 22.9102L19.8516 36.0352C19.9245 36.3998 20.1159 36.7006 20.4258 36.9376C20.7357 37.1745 21.0729 37.293 21.4375 37.293H34.5625C34.9271 37.293 35.2643 37.1745 35.5742 36.9376C35.8841 36.7006 36.0755 36.3998 36.1484 36.0352L39.4297 22.9102C39.5026 22.6185 39.4935 22.3178 39.4023 22.0079C39.3112 21.698 39.138 21.4519 38.8828 21.2696ZM33.3047 34.0118H22.6953L20.6172 25.5899L24.0078 27.2852C24.4089 27.4675 24.819 27.4949 25.2383 27.3672C25.6576 27.2396 25.9766 26.9571 26.1953 26.5196L28 22.9102L29.8047 26.5196C30.0234 26.9571 30.3424 27.2396 30.7617 27.3672C31.181 27.4949 31.5911 27.4675 31.9922 27.2852L35.3828 25.5899L33.3047 34.0118Z" fill="#2EBB77"/>
</g>
<defs>
<clipPath id="clip0_8360_23520">
<rect width="56" height="57" fill="white" transform="matrix(1 0 0 -1 0 57.5899)"/>
</clipPath>
</defs>
</svg>
