<svg width="56" height="54" viewBox="0 0 56 54" fill="none" xmlns="http://www.w3.org/2000/svg">
<path d="M51.0781 0.839905H4.92188C3.57292 0.839905 2.41536 1.32298 1.44922 2.28912C0.483073 3.25527 0 4.41282 0 5.76178V38.5743C0 39.9232 0.483073 41.0808 1.44922 42.0469C2.41536 43.0131 3.57292 43.4962 4.92188 43.4962H19.1406L16.9531 50.0587H11.5938C11.1562 50.0587 10.7734 50.2227 10.4453 50.5508C10.1172 50.879 9.95312 51.2618 9.95312 51.6993C9.95312 52.1368 10.1172 52.5196 10.4453 52.8477C10.7734 53.1758 11.1562 53.3399 11.5938 53.3399H44.4062C44.8438 53.3399 45.2266 53.1758 45.5547 52.8477C45.8828 52.5196 46.0469 52.1368 46.0469 51.6993C46.0469 51.2618 45.8828 50.879 45.5547 50.5508C45.2266 50.2227 44.8438 50.0587 44.4062 50.0587H39.0469L36.8594 43.4962H51.0781C52.4271 43.4962 53.5846 43.0131 54.5508 42.0469C55.5169 41.0808 56 39.9232 56 38.5743V5.76178C56 4.41282 55.5169 3.25527 54.5508 2.28912C53.5846 1.32298 52.4271 0.839905 51.0781 0.839905ZM20.4531 50.0587L22.6406 43.4962H33.3594L35.5469 50.0587H20.4531ZM52.7188 38.5743C52.7188 39.0118 52.5547 39.3946 52.2266 39.7227C51.8984 40.0508 51.5156 40.2149 51.0781 40.2149C50.4583 40.2149 47.8151 40.2149 43.1484 40.2149C38.5182 40.2149 33.4688 40.2149 28 40.2149C22.5312 40.2149 17.4818 40.2149 12.8516 40.2149C8.1849 40.2149 5.54167 40.2149 4.92188 40.2149C4.48438 40.2149 4.10156 40.0508 3.77344 39.7227C3.44531 39.3946 3.28125 39.0118 3.28125 38.5743V36.9337H52.7188V38.5743ZM52.7188 33.6524H3.28125V5.76178C3.28125 5.32428 3.44531 4.94147 3.77344 4.61334C4.10156 4.28522 4.48438 4.12115 4.92188 4.12115H51.0781C51.5156 4.12115 51.8984 4.28522 52.2266 4.61334C52.5547 4.94147 52.7188 5.32428 52.7188 5.76178V33.6524ZM32.9219 9.04303C32.9219 9.48053 32.7578 9.86334 32.4297 10.1915C32.1016 10.5196 31.7188 10.6837 31.2812 10.6837C30.8438 10.6837 30.4609 10.5196 30.1328 10.1915C29.8047 9.86334 29.6406 9.48053 29.6406 9.04303C29.6406 8.60553 29.8047 8.22272 30.1328 7.89459C30.4609 7.56647 30.8438 7.4024 31.2812 7.4024C31.7188 7.4024 32.1016 7.56647 32.4297 7.89459C32.7578 8.22272 32.9219 8.60553 32.9219 9.04303ZM26.3594 9.04303C26.3594 9.48053 26.1953 9.86334 25.8672 10.1915C25.5391 10.5196 25.1562 10.6837 24.7188 10.6837C24.2812 10.6837 23.8984 10.5196 23.5703 10.1915C23.2422 9.86334 23.0781 9.48053 23.0781 9.04303C23.0781 8.60553 23.2422 8.22272 23.5703 7.89459C23.8984 7.56647 24.2812 7.4024 24.7188 7.4024C25.1562 7.4024 25.5391 7.56647 25.8672 7.89459C26.1953 8.22272 26.3594 8.60553 26.3594 9.04303ZM39.4844 9.04303C39.4844 9.48053 39.3203 9.86334 38.9922 10.1915C38.6641 10.5196 38.2812 10.6837 37.8438 10.6837C37.4062 10.6837 37.0234 10.5196 36.6953 10.1915C36.3672 9.86334 36.2031 9.48053 36.2031 9.04303C36.2031 8.60553 36.3672 8.22272 36.6953 7.89459C37.0234 7.56647 37.4062 7.4024 37.8438 7.4024C38.2812 7.4024 38.6641 7.56647 38.9922 7.89459C39.3203 8.22272 39.4844 8.60553 39.4844 9.04303ZM18.1562 7.4024H8.3125C7.875 7.4024 7.49219 7.56647 7.16406 7.89459C6.83594 8.22272 6.67188 8.60553 6.67188 9.04303V28.7305C6.67188 29.168 6.83594 29.5508 7.16406 29.879C7.49219 30.2071 7.875 30.3712 8.3125 30.3712H18.1562C18.5938 30.3712 18.9766 30.2071 19.3047 29.879C19.6328 29.5508 19.7969 29.168 19.7969 28.7305V9.04303C19.7969 8.60553 19.6328 8.22272 19.3047 7.89459C18.9766 7.56647 18.5938 7.4024 18.1562 7.4024ZM16.5156 27.0899H9.95312V23.8087H16.5156V27.0899ZM16.5156 20.5274H9.95312V17.2462H16.5156V20.5274ZM16.5156 13.9649H9.95312V10.6837H16.5156V13.9649ZM42.2734 24.3008C41.9453 23.9727 41.5625 23.8087 41.125 23.8087C40.6875 23.8087 40.3047 23.9727 39.9766 24.3008L38.1172 26.1602L32.6484 17.9571C32.5026 17.7383 32.3112 17.5652 32.0742 17.4376C31.8372 17.31 31.5729 17.2462 31.2812 17.2462C30.9896 17.2462 30.7253 17.31 30.4883 17.4376C30.2513 17.5652 30.0599 17.7383 29.9141 17.9571L23.3516 27.8008C23.0964 28.2019 23.0143 28.6212 23.1055 29.0587C23.1966 29.4962 23.4245 29.8425 23.7891 30.0977C24.1901 30.3529 24.6094 30.435 25.0469 30.3438C25.4844 30.2527 25.8307 30.0248 26.0859 29.6602L31.2812 21.8399L36.4766 29.6602C36.6224 29.8425 36.7956 29.9975 36.9961 30.1251C37.1966 30.2527 37.4245 30.3347 37.6797 30.3712C37.9349 30.4076 38.1719 30.3803 38.3906 30.2891C38.6094 30.198 38.8099 30.0613 38.9922 29.879L41.125 27.7462L43.2578 29.879C43.5859 30.2071 43.9688 30.3712 44.4062 30.3712C44.8438 30.3712 45.2266 30.2071 45.5547 29.879C45.8828 29.5508 46.0469 29.168 46.0469 28.7305C46.0469 28.293 45.8828 27.9102 45.5547 27.5821L42.2734 24.3008ZM44.4062 10.6837C43.0573 10.6837 41.8997 11.1667 40.9336 12.1329C39.9674 13.099 39.4844 14.2566 39.4844 15.6055C39.4844 16.9545 39.9674 18.112 40.9336 19.0782C41.8997 20.0443 43.0573 20.5274 44.4062 20.5274C45.7552 20.5274 46.9128 20.0443 47.8789 19.0782C48.8451 18.112 49.3281 16.9545 49.3281 15.6055C49.3281 14.2566 48.8451 13.099 47.8789 12.1329C46.9128 11.1667 45.7552 10.6837 44.4062 10.6837ZM44.4062 17.2462C43.9688 17.2462 43.5859 17.0821 43.2578 16.754C42.9297 16.4258 42.7656 16.043 42.7656 15.6055C42.7656 15.168 42.9297 14.7852 43.2578 14.4571C43.5859 14.129 43.9688 13.9649 44.4062 13.9649C44.8438 13.9649 45.2266 14.129 45.5547 14.4571C45.8828 14.7852 46.0469 15.168 46.0469 15.6055C46.0469 16.043 45.8828 16.4258 45.5547 16.754C45.2266 17.0821 44.8438 17.2462 44.4062 17.2462Z" fill="#2EBB77"/>
</svg>
