<svg width="49" height="49" viewBox="0 0 49 49" fill="none" xmlns="http://www.w3.org/2000/svg">
<rect x="0.630859" y="0.390137" width="48" height="48" rx="24" fill="#F5F5F5"/>
<g clip-path="url(#clip0_8360_21454)">
<path d="M23.8574 15.4526C23.9043 15.2495 24.0176 15.0972 24.1973 14.9956C24.377 14.894 24.5684 14.8667 24.7715 14.9136C25.4746 15.1011 26.1387 15.3745 26.7637 15.7339C27.3887 16.0933 27.959 16.5308 28.4746 17.0464C28.9902 17.562 29.4277 18.1323 29.7871 18.7573C30.1465 19.3823 30.4199 20.0464 30.6074 20.7495C30.6543 20.9526 30.627 21.144 30.5254 21.3237C30.4238 21.5034 30.2715 21.6167 30.0684 21.6636C29.8652 21.7261 29.6777 21.7026 29.5059 21.5933C29.334 21.4839 29.2168 21.3354 29.1543 21.1479C28.998 20.5698 28.7715 20.0229 28.4746 19.5073C28.1777 18.9917 27.8184 18.5308 27.3965 18.1245C26.9902 17.7026 26.5293 17.3433 26.0137 17.0464C25.498 16.7495 24.9512 16.5229 24.373 16.3667C24.1855 16.3042 24.0371 16.187 23.9277 16.0151C23.8184 15.8433 23.7949 15.6558 23.8574 15.4526ZM23.0605 18.3354C23.123 18.1479 23.2441 17.9995 23.4238 17.8901C23.6035 17.7808 23.7949 17.7573 23.998 17.8198C24.4355 17.9292 24.8535 18.1011 25.252 18.3354C25.6504 18.5698 26.0137 18.8511 26.3418 19.1792C26.6699 19.5073 26.9512 19.8706 27.1855 20.269C27.4199 20.6675 27.5918 21.0854 27.7012 21.5229C27.7637 21.7261 27.7402 21.9175 27.6309 22.0972C27.5215 22.2769 27.373 22.3979 27.1855 22.4604C26.9824 22.5073 26.791 22.48 26.6113 22.3784C26.4316 22.2769 26.3105 22.1245 26.248 21.9214C26.1699 21.5933 26.0488 21.2886 25.8848 21.0073C25.7207 20.7261 25.5215 20.4683 25.2871 20.2339C25.0527 19.9995 24.7949 19.8003 24.5137 19.6362C24.2324 19.4722 23.9277 19.3511 23.5996 19.2729C23.3965 19.2104 23.2441 19.0894 23.1426 18.9097C23.041 18.73 23.0137 18.5386 23.0605 18.3354ZM17.2246 14.187C17.3809 14.1714 17.5371 14.1792 17.6934 14.2104C17.8496 14.2417 17.998 14.2964 18.1387 14.3745C18.2793 14.4526 18.4043 14.5542 18.5137 14.6792C18.623 14.8042 18.709 14.937 18.7715 15.0776L20.6699 19.4839C20.7168 19.5933 20.748 19.7065 20.7637 19.8237C20.7793 19.9409 20.7871 20.062 20.7871 20.187C20.7715 20.312 20.7441 20.4331 20.7051 20.5503C20.666 20.6675 20.6152 20.7808 20.5527 20.8901L18.9824 23.2573C19.3262 23.9761 19.7832 24.6206 20.3535 25.1909C20.9238 25.7612 21.5684 26.2183 22.2871 26.562L24.6309 24.9917C24.7246 24.9292 24.834 24.8745 24.959 24.8276C25.084 24.7808 25.209 24.7495 25.334 24.7339C25.4434 24.7339 25.5605 24.7417 25.6855 24.7573C25.8105 24.7729 25.9355 24.8042 26.0605 24.8511L30.4434 26.7495C30.584 26.812 30.7168 26.8979 30.8418 27.0073C30.9668 27.1167 31.0684 27.2417 31.1465 27.3823C31.2246 27.5229 31.2793 27.6714 31.3105 27.8276C31.3418 27.9839 31.3496 28.1401 31.334 28.2964C31.2559 28.937 31.0684 29.5386 30.7715 30.1011C30.4746 30.6636 30.084 31.1558 29.5996 31.5776C29.1152 31.9995 28.5762 32.3237 27.9824 32.5503C27.3887 32.7769 26.7715 32.8901 26.1309 32.8901C25.2402 32.8901 24.3574 32.8042 23.4824 32.6323C22.6074 32.4604 21.7676 32.2065 20.9629 31.8706C20.1582 31.5347 19.3809 31.1167 18.6309 30.6167C17.8965 30.1323 17.2168 29.5698 16.5918 28.9292C15.9512 28.3042 15.3887 27.6245 14.9043 26.8901C14.4043 26.1401 13.9863 25.3628 13.6504 24.5581C13.3145 23.7534 13.0605 22.9136 12.8887 22.0386C12.7168 21.1636 12.6309 20.2808 12.6309 19.3901C12.6309 18.7495 12.7441 18.1323 12.9707 17.5386C13.1973 16.9448 13.5215 16.4058 13.9434 15.9214C14.3652 15.437 14.8574 15.0464 15.4199 14.7495C15.9824 14.4526 16.584 14.2651 17.2246 14.187ZM18.3027 23.5854L17.623 23.9136C17.5762 23.8042 17.5371 23.6831 17.5059 23.5503C17.4746 23.4175 17.4668 23.2886 17.4824 23.1636C17.498 23.0386 17.5254 22.9175 17.5645 22.8003C17.6035 22.6831 17.6543 22.5698 17.7168 22.4604V22.437L19.2871 20.0698L17.3887 15.6636C16.9512 15.7261 16.5293 15.8628 16.123 16.0737C15.7168 16.2847 15.3652 16.562 15.0684 16.9058C14.7715 17.2495 14.541 17.6362 14.377 18.0659C14.2129 18.4956 14.1309 18.937 14.1309 19.3901L18.3027 23.5854ZM26.1309 31.3901C26.584 31.3901 27.0254 31.3081 27.4551 31.144C27.8848 30.98 28.2715 30.7495 28.6152 30.4526C28.959 30.1558 29.2363 29.8042 29.4473 29.3979C29.6582 28.9917 29.7949 28.5698 29.8574 28.1323L25.4512 26.2339L23.1309 27.8042C23.1152 27.8042 23.1074 27.8042 23.1074 27.8042C23.0137 27.8823 22.9043 27.9409 22.7793 27.98C22.6543 28.019 22.5293 28.0464 22.4043 28.062C22.2637 28.062 22.1309 28.0503 22.0059 28.0269C21.8809 28.0034 21.7559 27.9683 21.6309 27.9214C20.7559 27.4995 19.9746 26.9448 19.2871 26.2573C18.5996 25.5698 18.0449 24.7886 17.623 23.9136L18.3027 23.5854L26.1309 31.3901ZM14.1309 19.3901C14.1309 20.187 14.209 20.9683 14.3652 21.7339C14.5215 22.5151 14.748 23.2651 15.0449 23.9839C15.3418 24.7026 15.709 25.3901 16.1465 26.0464C16.584 26.7026 17.084 27.312 17.6465 27.8745C18.209 28.437 18.8184 28.937 19.4746 29.3745C20.1309 29.812 20.8184 30.1792 21.5371 30.4761C22.2559 30.7729 23.0059 30.9995 23.7871 31.1558C24.5527 31.312 25.334 31.3901 26.1309 31.3901L14.1309 19.3901Z" fill="black"/>
</g>
<defs>
<clipPath id="clip0_8360_21454">
<rect width="24" height="25" fill="white" transform="matrix(1 0 0 -1 12.6309 36.3901)"/>
</clipPath>
</defs>
</svg>
