<svg width="60" height="39" viewBox="0 0 60 39" fill="none" xmlns="http://www.w3.org/2000/svg">
<path d="M32.373 15.3901H44.9902C45.1465 15.3901 45.2962 15.4162 45.4395 15.4683C45.5827 15.5203 45.7129 15.5985 45.8301 15.7026C45.9473 15.8068 46.0417 15.9272 46.1133 16.064C46.1849 16.2007 46.2272 16.3407 46.2402 16.4839C46.2402 16.4969 46.2402 16.5034 46.2402 16.5034L47.3535 26.5034C47.3665 26.5946 47.3665 26.6825 47.3535 26.7671C47.3405 26.8517 47.321 26.9331 47.2949 27.0112C47.2689 27.1024 47.2363 27.1838 47.1973 27.2554C47.1582 27.327 47.1061 27.3953 47.041 27.4604C46.9889 27.5386 46.9271 27.6037 46.8555 27.6558C46.7839 27.7078 46.709 27.7469 46.6309 27.7729C46.5397 27.812 46.4518 27.8413 46.3672 27.8608C46.2826 27.8804 46.2012 27.8901 46.123 27.8901H31.2402C31.1621 27.8901 31.0807 27.8804 30.9961 27.8608C30.9115 27.8413 30.8236 27.812 30.7324 27.7729C30.6543 27.7469 30.5794 27.7078 30.5078 27.6558C30.4362 27.6037 30.3743 27.5386 30.3223 27.4604C30.2572 27.3953 30.2051 27.327 30.166 27.2554C30.127 27.1838 30.0944 27.1024 30.0684 27.0112C30.0423 26.9331 30.0228 26.8517 30.0098 26.7671C29.9967 26.6825 29.9967 26.5946 30.0098 26.5034L31.123 16.5034C31.123 16.5034 31.123 16.4969 31.123 16.4839C31.1361 16.3407 31.1784 16.2007 31.25 16.064C31.3216 15.9272 31.416 15.8068 31.5332 15.7026C31.6504 15.5985 31.7806 15.5203 31.9238 15.4683C32.0671 15.4162 32.2168 15.3901 32.373 15.3901ZM44.9902 16.6401H32.373L31.2598 26.6401H46.1035L44.9902 16.6401ZM38.6816 13.5151C38.3561 13.5151 38.0371 13.577 37.7246 13.7007C37.4121 13.8244 37.1387 14.0034 36.9043 14.2378C36.6699 14.4722 36.4909 14.7456 36.3672 15.0581C36.2435 15.3706 36.1816 15.6896 36.1816 16.0151V18.5151C36.1816 18.6844 36.1198 18.8309 35.9961 18.9546C35.8724 19.0783 35.7259 19.1401 35.5566 19.1401C35.3874 19.1401 35.2409 19.0783 35.1172 18.9546C34.9935 18.8309 34.9316 18.6844 34.9316 18.5151V16.0151C34.9316 15.5203 35.026 15.0418 35.2148 14.5796C35.4036 14.1174 35.6738 13.7104 36.0254 13.3589C36.377 13.0073 36.7839 12.7371 37.2461 12.5483C37.7083 12.3595 38.1868 12.2651 38.6816 12.2651C39.1764 12.2651 39.6549 12.3595 40.1172 12.5483C40.5794 12.7371 40.9863 13.0073 41.3379 13.3589C41.6895 13.7104 41.9596 14.1174 42.1484 14.5796C42.3372 15.0418 42.4316 15.5203 42.4316 16.0151V18.5151C42.4316 18.6844 42.3698 18.8309 42.2461 18.9546C42.1224 19.0783 41.9759 19.1401 41.8066 19.1401C41.6374 19.1401 41.4909 19.0783 41.3672 18.9546C41.2435 18.8309 41.1816 18.6844 41.1816 18.5151V16.0151C41.1816 15.6896 41.1198 15.3706 40.9961 15.0581C40.8724 14.7456 40.6934 14.4722 40.459 14.2378C40.2246 14.0034 39.9512 13.8244 39.6387 13.7007C39.3262 13.577 39.0072 13.5151 38.6816 13.5151Z" fill="black"/>
<rect x="42" y="0.390137" width="18" height="18" rx="9" fill="#2EBB77"/>
<path d="M51.2011 13.5341C50.4891 13.5341 49.8651 13.3421 49.3291 12.9581C48.8011 12.5661 48.3891 12.0261 48.0931 11.3381C47.7971 10.6421 47.6491 9.83414 47.6491 8.91414C47.6491 7.99414 47.7971 7.19014 48.0931 6.50214C48.3891 5.80614 48.8011 5.26614 49.3291 4.88214C49.8571 4.49814 50.4771 4.30614 51.1891 4.30614C51.9011 4.30614 52.5211 4.49814 53.0491 4.88214C53.5771 5.26614 53.9891 5.80614 54.2851 6.50214C54.5891 7.19014 54.7411 7.99414 54.7411 8.91414C54.7411 9.83414 54.5931 10.6421 54.2971 11.3381C54.0011 12.0341 53.5851 12.5741 53.0491 12.9581C52.5211 13.3421 51.9051 13.5341 51.2011 13.5341ZM51.2011 12.4421C51.6811 12.4421 52.0971 12.2981 52.4491 12.0101C52.8011 11.7141 53.0731 11.3021 53.2651 10.7741C53.4651 10.2461 53.5651 9.62614 53.5651 8.91414C53.5651 8.20214 53.4651 7.58214 53.2651 7.05414C53.0731 6.52614 52.7971 6.11814 52.4371 5.83014C52.0851 5.54214 51.6691 5.39814 51.1891 5.39814C50.7091 5.39814 50.2931 5.54214 49.9411 5.83014C49.5891 6.11814 49.3131 6.52614 49.1131 7.05414C48.9211 7.58214 48.8251 8.20214 48.8251 8.91414C48.8251 9.61814 48.9211 10.2341 49.1131 10.7621C49.3131 11.2901 49.5891 11.7021 49.9411 11.9981C50.3011 12.2941 50.7211 12.4421 51.2011 12.4421Z" fill="white"/>
</svg>
