<svg width="504" height="56" viewBox="0 0 504 56" fill="none" xmlns="http://www.w3.org/2000/svg">
<rect x="99.6309" y="4.39014" width="48" height="48" rx="24" fill="#F5F5F5"/>
<g clip-path="url(#clip0_8360_21452)">
<path d="M122.857 19.4526C122.904 19.2495 123.018 19.0972 123.197 18.9956C123.377 18.894 123.568 18.8667 123.771 18.9136C124.475 19.1011 125.139 19.3745 125.764 19.7339C126.389 20.0933 126.959 20.5308 127.475 21.0464C127.99 21.562 128.428 22.1323 128.787 22.7573C129.146 23.3823 129.42 24.0464 129.607 24.7495C129.654 24.9526 129.627 25.144 129.525 25.3237C129.424 25.5034 129.271 25.6167 129.068 25.6636C128.865 25.7261 128.678 25.7026 128.506 25.5933C128.334 25.4839 128.217 25.3354 128.154 25.1479C127.998 24.5698 127.771 24.0229 127.475 23.5073C127.178 22.9917 126.818 22.5308 126.396 22.1245C125.99 21.7026 125.529 21.3433 125.014 21.0464C124.498 20.7495 123.951 20.5229 123.373 20.3667C123.186 20.3042 123.037 20.187 122.928 20.0151C122.818 19.8433 122.795 19.6558 122.857 19.4526ZM122.061 22.3354C122.123 22.1479 122.244 21.9995 122.424 21.8901C122.604 21.7808 122.795 21.7573 122.998 21.8198C123.436 21.9292 123.854 22.1011 124.252 22.3354C124.65 22.5698 125.014 22.8511 125.342 23.1792C125.67 23.5073 125.951 23.8706 126.186 24.269C126.42 24.6675 126.592 25.0854 126.701 25.5229C126.764 25.7261 126.74 25.9175 126.631 26.0972C126.521 26.2769 126.373 26.3979 126.186 26.4604C125.982 26.5073 125.791 26.48 125.611 26.3784C125.432 26.2769 125.311 26.1245 125.248 25.9214C125.17 25.5933 125.049 25.2886 124.885 25.0073C124.721 24.7261 124.521 24.4683 124.287 24.2339C124.053 23.9995 123.795 23.8003 123.514 23.6362C123.232 23.4722 122.928 23.3511 122.6 23.2729C122.396 23.2104 122.244 23.0894 122.143 22.9097C122.041 22.73 122.014 22.5386 122.061 22.3354ZM116.225 18.187C116.381 18.1714 116.537 18.1792 116.693 18.2104C116.85 18.2417 116.998 18.2964 117.139 18.3745C117.279 18.4526 117.404 18.5542 117.514 18.6792C117.623 18.8042 117.709 18.937 117.771 19.0776L119.67 23.4839C119.717 23.5933 119.748 23.7065 119.764 23.8237C119.779 23.9409 119.787 24.062 119.787 24.187C119.771 24.312 119.744 24.4331 119.705 24.5503C119.666 24.6675 119.615 24.7808 119.553 24.8901L117.982 27.2573C118.326 27.9761 118.783 28.6206 119.354 29.1909C119.924 29.7612 120.568 30.2183 121.287 30.562L123.631 28.9917C123.725 28.9292 123.834 28.8745 123.959 28.8276C124.084 28.7808 124.209 28.7495 124.334 28.7339C124.443 28.7339 124.561 28.7417 124.686 28.7573C124.811 28.7729 124.936 28.8042 125.061 28.8511L129.443 30.7495C129.584 30.812 129.717 30.8979 129.842 31.0073C129.967 31.1167 130.068 31.2417 130.146 31.3823C130.225 31.5229 130.279 31.6714 130.311 31.8276C130.342 31.9839 130.35 32.1401 130.334 32.2964C130.256 32.937 130.068 33.5386 129.771 34.1011C129.475 34.6636 129.084 35.1558 128.6 35.5776C128.115 35.9995 127.576 36.3237 126.982 36.5503C126.389 36.7769 125.771 36.8901 125.131 36.8901C124.24 36.8901 123.357 36.8042 122.482 36.6323C121.607 36.4604 120.768 36.2065 119.963 35.8706C119.158 35.5347 118.381 35.1167 117.631 34.6167C116.896 34.1323 116.217 33.5698 115.592 32.9292C114.951 32.3042 114.389 31.6245 113.904 30.8901C113.404 30.1401 112.986 29.3628 112.65 28.5581C112.314 27.7534 112.061 26.9136 111.889 26.0386C111.717 25.1636 111.631 24.2808 111.631 23.3901C111.631 22.7495 111.744 22.1323 111.971 21.5386C112.197 20.9448 112.521 20.4058 112.943 19.9214C113.365 19.437 113.857 19.0464 114.42 18.7495C114.982 18.4526 115.584 18.2651 116.225 18.187ZM117.303 27.5854L116.623 27.9136C116.576 27.8042 116.537 27.6831 116.506 27.5503C116.475 27.4175 116.467 27.2886 116.482 27.1636C116.498 27.0386 116.525 26.9175 116.564 26.8003C116.604 26.6831 116.654 26.5698 116.717 26.4604V26.437L118.287 24.0698L116.389 19.6636C115.951 19.7261 115.529 19.8628 115.123 20.0737C114.717 20.2847 114.365 20.562 114.068 20.9058C113.771 21.2495 113.541 21.6362 113.377 22.0659C113.213 22.4956 113.131 22.937 113.131 23.3901L117.303 27.5854ZM125.131 35.3901C125.584 35.3901 126.025 35.3081 126.455 35.144C126.885 34.98 127.271 34.7495 127.615 34.4526C127.959 34.1558 128.236 33.8042 128.447 33.3979C128.658 32.9917 128.795 32.5698 128.857 32.1323L124.451 30.2339L122.131 31.8042C122.115 31.8042 122.107 31.8042 122.107 31.8042C122.014 31.8823 121.904 31.9409 121.779 31.98C121.654 32.019 121.529 32.0464 121.404 32.062C121.264 32.062 121.131 32.0503 121.006 32.0269C120.881 32.0034 120.756 31.9683 120.631 31.9214C119.756 31.4995 118.975 30.9448 118.287 30.2573C117.6 29.5698 117.045 28.7886 116.623 27.9136L117.303 27.5854L125.131 35.3901ZM113.131 23.3901C113.131 24.187 113.209 24.9683 113.365 25.7339C113.521 26.5151 113.748 27.2651 114.045 27.9839C114.342 28.7026 114.709 29.3901 115.146 30.0464C115.584 30.7026 116.084 31.312 116.646 31.8745C117.209 32.437 117.818 32.937 118.475 33.3745C119.131 33.812 119.818 34.1792 120.537 34.4761C121.256 34.7729 122.006 34.9995 122.787 35.1558C123.553 35.312 124.334 35.3901 125.131 35.3901L113.131 23.3901Z" fill="black"/>
</g>
<path d="M158.711 20.8V9.62505H160.751V14.5H165.506V9.62505H167.561V20.8H165.506V16.3H160.751V20.8H158.711ZM173.537 20.98C172.737 20.98 172.007 20.795 171.347 20.425C170.697 20.055 170.177 19.55 169.787 18.91C169.407 18.27 169.217 17.54 169.217 16.72C169.217 15.9 169.407 15.17 169.787 14.53C170.177 13.89 170.697 13.385 171.347 13.015C171.997 12.645 172.727 12.46 173.537 12.46C174.337 12.46 175.062 12.645 175.712 13.015C176.362 13.385 176.877 13.89 177.257 14.53C177.647 15.16 177.842 15.89 177.842 16.72C177.842 17.54 177.647 18.27 177.257 18.91C176.867 19.55 176.347 20.055 175.697 20.425C175.047 20.795 174.327 20.98 173.537 20.98ZM173.537 19.18C173.977 19.18 174.362 19.075 174.692 18.865C175.032 18.655 175.297 18.365 175.487 17.995C175.687 17.615 175.787 17.19 175.787 16.72C175.787 16.24 175.687 15.82 175.487 15.46C175.297 15.09 175.032 14.8 174.692 14.59C174.362 14.37 173.977 14.26 173.537 14.26C173.087 14.26 172.692 14.37 172.352 14.59C172.012 14.8 171.742 15.09 171.542 15.46C171.352 15.82 171.257 16.24 171.257 16.72C171.257 17.19 171.352 17.615 171.542 17.995C171.742 18.365 172.012 18.655 172.352 18.865C172.692 19.075 173.087 19.18 173.537 19.18ZM182.906 20.89C181.986 20.89 181.271 20.64 180.761 20.14C180.261 19.63 180.011 18.915 180.011 17.995V14.395H178.601V12.64H178.751C179.151 12.64 179.461 12.535 179.681 12.325C179.901 12.115 180.011 11.81 180.011 11.41V10.78H181.976V12.64H183.851V14.395H181.976V17.89C181.976 18.16 182.021 18.39 182.111 18.58C182.211 18.77 182.361 18.915 182.561 19.015C182.771 19.115 183.036 19.165 183.356 19.165C183.426 19.165 183.506 19.16 183.596 19.15C183.696 19.14 183.791 19.13 183.881 19.12V20.8C183.741 20.82 183.581 20.84 183.401 20.86C183.221 20.88 183.056 20.89 182.906 20.89ZM185.382 20.8V9.44505H187.347V20.8H185.382ZM189.161 20.8V12.64H191.126V20.8H189.161ZM189.161 11.725V9.62505H191.126V11.725H189.161ZM192.94 20.8V12.64H194.785V14.245L194.635 13.96C194.825 13.47 195.135 13.1 195.565 12.85C196.005 12.59 196.515 12.46 197.095 12.46C197.695 12.46 198.225 12.59 198.685 12.85C199.155 13.11 199.52 13.475 199.78 13.945C200.04 14.405 200.17 14.94 200.17 15.55V20.8H198.205V16.015C198.205 15.655 198.135 15.345 197.995 15.085C197.855 14.825 197.66 14.625 197.41 14.485C197.17 14.335 196.885 14.26 196.555 14.26C196.235 14.26 195.95 14.335 195.7 14.485C195.45 14.625 195.255 14.825 195.115 15.085C194.975 15.345 194.905 15.655 194.905 16.015V20.8H192.94ZM205.702 20.98C204.862 20.98 204.127 20.79 203.497 20.41C202.867 20.03 202.377 19.515 202.027 18.865C201.677 18.215 201.502 17.495 201.502 16.705C201.502 15.885 201.677 15.16 202.027 14.53C202.387 13.89 202.872 13.385 203.482 13.015C204.102 12.645 204.792 12.46 205.552 12.46C206.192 12.46 206.752 12.565 207.232 12.775C207.722 12.985 208.137 13.275 208.477 13.645C208.817 14.015 209.077 14.44 209.257 14.92C209.437 15.39 209.527 15.9 209.527 16.45C209.527 16.59 209.517 16.735 209.497 16.885C209.487 17.035 209.462 17.165 209.422 17.275H203.122V15.775H208.312L207.382 16.48C207.472 16.02 207.447 15.61 207.307 15.25C207.177 14.89 206.957 14.605 206.647 14.395C206.347 14.185 205.982 14.08 205.552 14.08C205.142 14.08 204.777 14.185 204.457 14.395C204.137 14.595 203.892 14.895 203.722 15.295C203.562 15.685 203.502 16.16 203.542 16.72C203.502 17.22 203.567 17.665 203.737 18.055C203.917 18.435 204.177 18.73 204.517 18.94C204.867 19.15 205.267 19.255 205.717 19.255C206.167 19.255 206.547 19.16 206.857 18.97C207.177 18.78 207.427 18.525 207.607 18.205L209.197 18.985C209.037 19.375 208.787 19.72 208.447 20.02C208.107 20.32 207.702 20.555 207.232 20.725C206.772 20.895 206.262 20.98 205.702 20.98ZM211.947 20.8V18.7H213.927V20.8H211.947ZM211.947 14.74V12.64H213.927V14.74H211.947Z" fill="black"/>
<path d="M222.085 20.8V9.47805H219.493V7.39005H224.533V20.8H222.085ZM227.922 20.8L232.476 14.932L232.89 15.364C232.71 15.496 232.536 15.604 232.368 15.688C232.2 15.772 232.02 15.832 231.828 15.868C231.636 15.904 231.432 15.922 231.216 15.922C230.4 15.922 229.674 15.736 229.038 15.364C228.402 14.992 227.898 14.488 227.526 13.852C227.166 13.204 226.986 12.472 226.986 11.656C226.986 10.792 227.184 10.024 227.58 9.35205C227.988 8.68005 228.54 8.15205 229.236 7.76805C229.944 7.37205 230.748 7.17405 231.648 7.17405C232.56 7.17405 233.364 7.36605 234.06 7.75005C234.756 8.13405 235.302 8.66205 235.698 9.33405C236.106 9.99405 236.31 10.756 236.31 11.62C236.31 12.052 236.262 12.484 236.166 12.916C236.07 13.348 235.896 13.81 235.644 14.302C235.404 14.782 235.056 15.328 234.6 15.94L230.856 20.8H227.922ZM231.648 13.87C232.068 13.87 232.44 13.78 232.764 13.6C233.1 13.408 233.364 13.144 233.556 12.808C233.748 12.46 233.844 12.07 233.844 11.638C233.844 11.182 233.742 10.786 233.538 10.45C233.346 10.114 233.088 9.85005 232.764 9.65805C232.44 9.46605 232.068 9.37005 231.648 9.37005C231.24 9.37005 230.868 9.46605 230.532 9.65805C230.196 9.85005 229.926 10.114 229.722 10.45C229.53 10.786 229.434 11.182 229.434 11.638C229.434 12.07 229.53 12.46 229.722 12.808C229.926 13.144 230.196 13.408 230.532 13.6C230.868 13.78 231.24 13.87 231.648 13.87ZM243.431 21.016C242.363 21.016 241.427 20.728 240.623 20.152C239.819 19.576 239.189 18.766 238.733 17.722C238.289 16.678 238.067 15.466 238.067 14.086C238.067 12.694 238.289 11.482 238.733 10.45C239.177 9.41805 239.801 8.61405 240.605 8.03805C241.409 7.46205 242.345 7.17405 243.413 7.17405C244.505 7.17405 245.447 7.46205 246.239 8.03805C247.043 8.61405 247.673 9.42405 248.129 10.468C248.585 11.5 248.813 12.706 248.813 14.086C248.813 15.466 248.585 16.678 248.129 17.722C247.685 18.754 247.061 19.564 246.257 20.152C245.453 20.728 244.511 21.016 243.431 21.016ZM243.449 18.784C244.061 18.784 244.583 18.598 245.015 18.226C245.447 17.842 245.777 17.302 246.005 16.606C246.245 15.898 246.365 15.058 246.365 14.086C246.365 13.114 246.245 12.28 246.005 11.584C245.777 10.876 245.441 10.336 244.997 9.96405C244.565 9.59205 244.037 9.40605 243.413 9.40605C242.813 9.40605 242.297 9.59205 241.865 9.96405C241.433 10.336 241.097 10.876 240.857 11.584C240.629 12.28 240.515 13.114 240.515 14.086C240.515 15.046 240.629 15.88 240.857 16.588C241.097 17.284 241.433 17.824 241.865 18.208C242.309 18.592 242.837 18.784 243.449 18.784ZM256.175 21.016C255.107 21.016 254.171 20.728 253.367 20.152C252.563 19.576 251.933 18.766 251.477 17.722C251.033 16.678 250.811 15.466 250.811 14.086C250.811 12.694 251.033 11.482 251.477 10.45C251.921 9.41805 252.545 8.61405 253.349 8.03805C254.153 7.46205 255.089 7.17405 256.157 7.17405C257.249 7.17405 258.191 7.46205 258.983 8.03805C259.787 8.61405 260.417 9.42405 260.873 10.468C261.329 11.5 261.557 12.706 261.557 14.086C261.557 15.466 261.329 16.678 260.873 17.722C260.429 18.754 259.805 19.564 259.001 20.152C258.197 20.728 257.255 21.016 256.175 21.016ZM256.193 18.784C256.805 18.784 257.327 18.598 257.759 18.226C258.191 17.842 258.521 17.302 258.749 16.606C258.989 15.898 259.109 15.058 259.109 14.086C259.109 13.114 258.989 12.28 258.749 11.584C258.521 10.876 258.185 10.336 257.741 9.96405C257.309 9.59205 256.781 9.40605 256.157 9.40605C255.557 9.40605 255.041 9.59205 254.609 9.96405C254.177 10.336 253.841 10.876 253.601 11.584C253.373 12.28 253.259 13.114 253.259 14.086C253.259 15.046 253.373 15.88 253.601 16.588C253.841 17.284 254.177 17.824 254.609 18.208C255.053 18.592 255.581 18.784 256.193 18.784ZM268.235 21.016C267.263 21.016 266.417 20.836 265.697 20.476C264.989 20.104 264.437 19.606 264.041 18.982C263.657 18.358 263.465 17.674 263.465 16.93C263.465 16.054 263.699 15.316 264.167 14.716C264.635 14.104 265.313 13.654 266.201 13.366L266.057 13.96C265.421 13.756 264.917 13.36 264.545 12.772C264.185 12.184 264.005 11.536 264.005 10.828C264.005 10.12 264.185 9.49005 264.545 8.93805C264.905 8.38605 265.403 7.95405 266.039 7.64205C266.675 7.33005 267.407 7.17405 268.235 7.17405C269.051 7.17405 269.771 7.33005 270.395 7.64205C271.031 7.95405 271.529 8.38605 271.889 8.93805C272.261 9.49005 272.447 10.12 272.447 10.828C272.447 11.548 272.261 12.202 271.889 12.79C271.529 13.366 271.031 13.762 270.395 13.978L270.269 13.348C271.157 13.66 271.835 14.122 272.303 14.734C272.771 15.334 273.005 16.072 273.005 16.948C273.005 17.692 272.807 18.376 272.411 19C272.027 19.612 271.475 20.104 270.755 20.476C270.047 20.836 269.207 21.016 268.235 21.016ZM268.235 18.946C268.703 18.946 269.111 18.862 269.459 18.694C269.807 18.514 270.077 18.268 270.269 17.956C270.461 17.632 270.557 17.266 270.557 16.858C270.557 16.438 270.461 16.078 270.269 15.778C270.077 15.466 269.807 15.226 269.459 15.058C269.111 14.878 268.703 14.788 268.235 14.788C267.767 14.788 267.359 14.878 267.011 15.058C266.675 15.226 266.411 15.466 266.219 15.778C266.027 16.078 265.931 16.438 265.931 16.858C265.931 17.266 266.027 17.632 266.219 17.956C266.411 18.268 266.675 18.514 267.011 18.694C267.359 18.862 267.767 18.946 268.235 18.946ZM268.235 12.718C268.583 12.718 268.889 12.64 269.153 12.484C269.417 12.328 269.621 12.124 269.765 11.872C269.921 11.608 269.999 11.308 269.999 10.972C269.999 10.636 269.921 10.342 269.765 10.09C269.621 9.82605 269.417 9.62205 269.153 9.47805C268.889 9.32205 268.583 9.24405 268.235 9.24405C267.887 9.24405 267.575 9.32205 267.299 9.47805C267.035 9.62205 266.825 9.82605 266.669 10.09C266.525 10.342 266.453 10.636 266.453 10.972C266.453 11.308 266.525 11.608 266.669 11.872C266.825 12.124 267.035 12.328 267.299 12.484C267.575 12.64 267.887 12.718 268.235 12.718ZM277.034 20.8V9.47805H274.442V7.39005H279.482V20.8H277.034ZM286.868 21.016C285.896 21.016 285.05 20.836 284.33 20.476C283.622 20.104 283.07 19.606 282.674 18.982C282.29 18.358 282.098 17.674 282.098 16.93C282.098 16.054 282.332 15.316 282.8 14.716C283.268 14.104 283.946 13.654 284.834 13.366L284.69 13.96C284.054 13.756 283.55 13.36 283.178 12.772C282.818 12.184 282.638 11.536 282.638 10.828C282.638 10.12 282.818 9.49005 283.178 8.93805C283.538 8.38605 284.036 7.95405 284.672 7.64205C285.308 7.33005 286.04 7.17405 286.868 7.17405C287.684 7.17405 288.404 7.33005 289.028 7.64205C289.664 7.95405 290.162 8.38605 290.522 8.93805C290.894 9.49005 291.08 10.12 291.08 10.828C291.08 11.548 290.894 12.202 290.522 12.79C290.162 13.366 289.664 13.762 289.028 13.978L288.902 13.348C289.79 13.66 290.468 14.122 290.936 14.734C291.404 15.334 291.638 16.072 291.638 16.948C291.638 17.692 291.44 18.376 291.044 19C290.66 19.612 290.108 20.104 289.388 20.476C288.68 20.836 287.84 21.016 286.868 21.016ZM286.868 18.946C287.336 18.946 287.744 18.862 288.092 18.694C288.44 18.514 288.71 18.268 288.902 17.956C289.094 17.632 289.19 17.266 289.19 16.858C289.19 16.438 289.094 16.078 288.902 15.778C288.71 15.466 288.44 15.226 288.092 15.058C287.744 14.878 287.336 14.788 286.868 14.788C286.4 14.788 285.992 14.878 285.644 15.058C285.308 15.226 285.044 15.466 284.852 15.778C284.66 16.078 284.564 16.438 284.564 16.858C284.564 17.266 284.66 17.632 284.852 17.956C285.044 18.268 285.308 18.514 285.644 18.694C285.992 18.862 286.4 18.946 286.868 18.946ZM286.868 12.718C287.216 12.718 287.522 12.64 287.786 12.484C288.05 12.328 288.254 12.124 288.398 11.872C288.554 11.608 288.632 11.308 288.632 10.972C288.632 10.636 288.554 10.342 288.398 10.09C288.254 9.82605 288.05 9.62205 287.786 9.47805C287.522 9.32205 287.216 9.24405 286.868 9.24405C286.52 9.24405 286.208 9.32205 285.932 9.47805C285.668 9.62205 285.458 9.82605 285.302 10.09C285.158 10.342 285.086 10.636 285.086 10.972C285.086 11.308 285.158 11.608 285.302 11.872C285.458 12.124 285.668 12.328 285.932 12.484C286.208 12.64 286.52 12.718 286.868 12.718ZM298.241 21.016C297.269 21.016 296.423 20.836 295.703 20.476C294.995 20.104 294.443 19.606 294.047 18.982C293.663 18.358 293.471 17.674 293.471 16.93C293.471 16.054 293.705 15.316 294.173 14.716C294.641 14.104 295.319 13.654 296.207 13.366L296.063 13.96C295.427 13.756 294.923 13.36 294.551 12.772C294.191 12.184 294.011 11.536 294.011 10.828C294.011 10.12 294.191 9.49005 294.551 8.93805C294.911 8.38605 295.409 7.95405 296.045 7.64205C296.681 7.33005 297.413 7.17405 298.241 7.17405C299.057 7.17405 299.777 7.33005 300.401 7.64205C301.037 7.95405 301.535 8.38605 301.895 8.93805C302.267 9.49005 302.453 10.12 302.453 10.828C302.453 11.548 302.267 12.202 301.895 12.79C301.535 13.366 301.037 13.762 300.401 13.978L300.275 13.348C301.163 13.66 301.841 14.122 302.309 14.734C302.777 15.334 303.011 16.072 303.011 16.948C303.011 17.692 302.813 18.376 302.417 19C302.033 19.612 301.481 20.104 300.761 20.476C300.053 20.836 299.213 21.016 298.241 21.016ZM298.241 18.946C298.709 18.946 299.117 18.862 299.465 18.694C299.813 18.514 300.083 18.268 300.275 17.956C300.467 17.632 300.563 17.266 300.563 16.858C300.563 16.438 300.467 16.078 300.275 15.778C300.083 15.466 299.813 15.226 299.465 15.058C299.117 14.878 298.709 14.788 298.241 14.788C297.773 14.788 297.365 14.878 297.017 15.058C296.681 15.226 296.417 15.466 296.225 15.778C296.033 16.078 295.937 16.438 295.937 16.858C295.937 17.266 296.033 17.632 296.225 17.956C296.417 18.268 296.681 18.514 297.017 18.694C297.365 18.862 297.773 18.946 298.241 18.946ZM298.241 12.718C298.589 12.718 298.895 12.64 299.159 12.484C299.423 12.328 299.627 12.124 299.771 11.872C299.927 11.608 300.005 11.308 300.005 10.972C300.005 10.636 299.927 10.342 299.771 10.09C299.627 9.82605 299.423 9.62205 299.159 9.47805C298.895 9.32205 298.589 9.24405 298.241 9.24405C297.893 9.24405 297.581 9.32205 297.305 9.47805C297.041 9.62205 296.831 9.82605 296.675 10.09C296.531 10.342 296.459 10.636 296.459 10.972C296.459 11.308 296.531 11.608 296.675 11.872C296.831 12.124 297.041 12.328 297.305 12.484C297.581 12.64 297.893 12.718 298.241 12.718Z" fill="black"/>
<path d="M158.876 48.98V37.805H162.821C163.561 37.805 164.211 37.945 164.771 38.225C165.331 38.505 165.766 38.905 166.076 39.425C166.396 39.945 166.556 40.555 166.556 41.255C166.556 41.955 166.396 42.565 166.076 43.085C165.766 43.595 165.331 43.995 164.771 44.285C164.221 44.565 163.571 44.705 162.821 44.705H160.346V48.98H158.876ZM160.346 43.355H162.866C163.316 43.355 163.706 43.27 164.036 43.1C164.366 42.93 164.621 42.685 164.801 42.365C164.981 42.045 165.071 41.675 165.071 41.255C165.071 40.825 164.981 40.455 164.801 40.145C164.621 39.825 164.366 39.58 164.036 39.41C163.706 39.24 163.316 39.155 162.866 39.155H160.346V43.355ZM168.379 48.98V40.895H169.774V48.98H168.379ZM168.379 39.605V37.805H169.774V39.605H168.379ZM175.688 49.16C174.898 49.16 174.193 48.975 173.573 48.605C172.963 48.235 172.483 47.73 172.133 47.09C171.783 46.45 171.608 45.73 171.608 44.93C171.608 44.12 171.783 43.4 172.133 42.77C172.483 42.14 172.963 41.64 173.573 41.27C174.193 40.9 174.898 40.715 175.688 40.715C176.218 40.715 176.713 40.81 177.173 41C177.633 41.19 178.038 41.445 178.388 41.765C178.738 42.085 178.993 42.46 179.153 42.89L177.908 43.49C177.718 43.07 177.428 42.73 177.038 42.47C176.648 42.2 176.198 42.065 175.688 42.065C175.198 42.065 174.753 42.19 174.353 42.44C173.963 42.69 173.653 43.03 173.423 43.46C173.193 43.89 173.078 44.385 173.078 44.945C173.078 45.485 173.193 45.975 173.423 46.415C173.653 46.845 173.963 47.185 174.353 47.435C174.753 47.685 175.198 47.81 175.688 47.81C176.198 47.81 176.648 47.68 177.038 47.42C177.428 47.15 177.718 46.795 177.908 46.355L179.153 46.985C178.993 47.405 178.738 47.78 178.388 48.11C178.038 48.43 177.633 48.685 177.173 48.875C176.713 49.065 176.218 49.16 175.688 49.16ZM180.976 48.98V37.625H182.371V45.41L181.801 45.275L186.091 40.895H187.876L184.771 44.15L188.086 48.98H186.436L183.406 44.6L184.276 44.555L181.921 47.015L182.371 45.995V48.98H180.976ZM192.206 49.16C191.626 49.16 191.101 49.025 190.631 48.755C190.171 48.485 189.811 48.11 189.551 47.63C189.301 47.14 189.176 46.58 189.176 45.95V40.895H190.571V45.8C190.571 46.2 190.651 46.55 190.811 46.85C190.981 47.15 191.211 47.385 191.501 47.555C191.801 47.725 192.141 47.81 192.521 47.81C192.901 47.81 193.236 47.725 193.526 47.555C193.826 47.385 194.056 47.14 194.216 46.82C194.386 46.5 194.471 46.12 194.471 45.68V40.895H195.881V48.98H194.516V47.405L194.741 47.54C194.551 48.05 194.226 48.45 193.766 48.74C193.316 49.02 192.796 49.16 192.206 49.16ZM198.042 51.98V40.895H199.407V42.635L199.227 42.29C199.527 41.81 199.937 41.43 200.457 41.15C200.977 40.86 201.572 40.715 202.242 40.715C203.002 40.715 203.682 40.9 204.282 41.27C204.892 41.64 205.372 42.145 205.722 42.785C206.072 43.415 206.247 44.135 206.247 44.945C206.247 45.735 206.072 46.45 205.722 47.09C205.372 47.73 204.892 48.235 204.282 48.605C203.682 48.975 202.997 49.16 202.227 49.16C201.577 49.16 200.982 49.015 200.442 48.725C199.912 48.435 199.502 48.025 199.212 47.495L199.437 47.255V51.98H198.042ZM202.122 47.81C202.632 47.81 203.087 47.685 203.487 47.435C203.887 47.185 204.197 46.845 204.417 46.415C204.647 45.975 204.762 45.485 204.762 44.945C204.762 44.385 204.647 43.895 204.417 43.475C204.197 43.045 203.887 42.705 203.487 42.455C203.087 42.195 202.632 42.065 202.122 42.065C201.612 42.065 201.152 42.19 200.742 42.44C200.342 42.69 200.022 43.035 199.782 43.475C199.552 43.905 199.437 44.395 199.437 44.945C199.437 45.485 199.552 45.975 199.782 46.415C200.022 46.845 200.342 47.185 200.742 47.435C201.152 47.685 201.612 47.81 202.122 47.81ZM211.104 52.28C210.924 52.28 210.744 52.265 210.564 52.235C210.384 52.215 210.214 52.17 210.054 52.1V50.855C210.164 50.865 210.299 50.885 210.459 50.915C210.629 50.945 210.794 50.96 210.954 50.96C211.424 50.96 211.779 50.855 212.019 50.645C212.269 50.435 212.504 50.08 212.724 49.58L213.234 48.365L213.204 49.58L209.754 40.895H211.269L213.954 47.795H213.504L216.174 40.895H217.719L214.074 49.94C213.904 50.37 213.684 50.765 213.414 51.125C213.154 51.485 212.834 51.765 212.454 51.965C212.074 52.175 211.624 52.28 211.104 52.28ZM222.653 49.16C221.873 49.16 221.168 48.98 220.538 48.62C219.908 48.25 219.408 47.745 219.038 47.105C218.668 46.465 218.483 45.74 218.483 44.93C218.483 44.12 218.663 43.4 219.023 42.77C219.393 42.14 219.893 41.64 220.523 41.27C221.153 40.9 221.863 40.715 222.653 40.715C223.433 40.715 224.138 40.9 224.768 41.27C225.398 41.63 225.893 42.125 226.253 42.755C226.623 43.385 226.808 44.11 226.808 44.93C226.808 45.75 226.618 46.48 226.238 47.12C225.858 47.75 225.353 48.25 224.723 48.62C224.103 48.98 223.413 49.16 222.653 49.16ZM222.653 47.81C223.153 47.81 223.603 47.685 224.003 47.435C224.413 47.185 224.733 46.84 224.963 46.4C225.203 45.96 225.323 45.47 225.323 44.93C225.323 44.38 225.203 43.895 224.963 43.475C224.733 43.045 224.413 42.705 224.003 42.455C223.603 42.195 223.153 42.065 222.653 42.065C222.143 42.065 221.683 42.195 221.273 42.455C220.873 42.705 220.553 43.045 220.313 43.475C220.073 43.895 219.953 44.38 219.953 44.93C219.953 45.47 220.073 45.96 220.313 46.4C220.553 46.84 220.873 47.185 221.273 47.435C221.683 47.685 222.143 47.81 222.653 47.81ZM231.493 49.16C230.913 49.16 230.388 49.025 229.918 48.755C229.458 48.485 229.098 48.11 228.838 47.63C228.588 47.14 228.463 46.58 228.463 45.95V40.895H229.858V45.8C229.858 46.2 229.938 46.55 230.098 46.85C230.268 47.15 230.498 47.385 230.788 47.555C231.088 47.725 231.428 47.81 231.808 47.81C232.188 47.81 232.523 47.725 232.813 47.555C233.113 47.385 233.343 47.14 233.503 46.82C233.673 46.5 233.758 46.12 233.758 45.68V40.895H235.168V48.98H233.803V47.405L234.028 47.54C233.838 48.05 233.513 48.45 233.053 48.74C232.603 49.02 232.083 49.16 231.493 49.16ZM237.329 48.98V40.895H238.694V42.38L238.544 42.17C238.734 41.71 239.024 41.37 239.414 41.15C239.804 40.92 240.279 40.805 240.839 40.805H241.334V42.125H240.629C240.059 42.125 239.599 42.305 239.249 42.665C238.899 43.015 238.724 43.515 238.724 44.165V48.98H237.329ZM249.006 49.16C248.226 49.16 247.521 48.98 246.891 48.62C246.261 48.25 245.761 47.745 245.391 47.105C245.021 46.465 244.836 45.74 244.836 44.93C244.836 44.12 245.016 43.4 245.376 42.77C245.746 42.14 246.246 41.64 246.876 41.27C247.506 40.9 248.216 40.715 249.006 40.715C249.786 40.715 250.491 40.9 251.121 41.27C251.751 41.63 252.246 42.125 252.606 42.755C252.976 43.385 253.161 44.11 253.161 44.93C253.161 45.75 252.971 46.48 252.591 47.12C252.211 47.75 251.706 48.25 251.076 48.62C250.456 48.98 249.766 49.16 249.006 49.16ZM249.006 47.81C249.506 47.81 249.956 47.685 250.356 47.435C250.766 47.185 251.086 46.84 251.316 46.4C251.556 45.96 251.676 45.47 251.676 44.93C251.676 44.38 251.556 43.895 251.316 43.475C251.086 43.045 250.766 42.705 250.356 42.455C249.956 42.195 249.506 42.065 249.006 42.065C248.496 42.065 248.036 42.195 247.626 42.455C247.226 42.705 246.906 43.045 246.666 43.475C246.426 43.895 246.306 44.38 246.306 44.93C246.306 45.47 246.426 45.96 246.666 46.4C246.906 46.84 247.226 47.185 247.626 47.435C248.036 47.685 248.496 47.81 249.006 47.81ZM254.98 48.98V40.895H256.345V42.38L256.195 42.17C256.385 41.71 256.675 41.37 257.065 41.15C257.455 40.92 257.93 40.805 258.49 40.805H258.985V42.125H258.28C257.71 42.125 257.25 42.305 256.9 42.665C256.55 43.015 256.375 43.515 256.375 44.165V48.98H254.98ZM263.9 49.16C263.14 49.16 262.455 48.975 261.845 48.605C261.245 48.235 260.77 47.73 260.42 47.09C260.07 46.45 259.895 45.735 259.895 44.945C259.895 44.135 260.07 43.415 260.42 42.785C260.77 42.145 261.245 41.64 261.845 41.27C262.455 40.9 263.14 40.715 263.9 40.715C264.57 40.715 265.165 40.86 265.685 41.15C266.205 41.43 266.615 41.81 266.915 42.29L266.69 42.635V37.625H268.1V48.98H266.735V47.255L266.915 47.495C266.635 48.025 266.225 48.435 265.685 48.725C265.155 49.015 264.56 49.16 263.9 49.16ZM264.02 47.81C264.53 47.81 264.985 47.685 265.385 47.435C265.785 47.185 266.1 46.845 266.33 46.415C266.57 45.975 266.69 45.485 266.69 44.945C266.69 44.395 266.57 43.905 266.33 43.475C266.1 43.035 265.785 42.69 265.385 42.44C264.985 42.19 264.53 42.065 264.02 42.065C263.52 42.065 263.065 42.195 262.655 42.455C262.255 42.705 261.94 43.045 261.71 43.475C261.48 43.895 261.365 44.385 261.365 44.945C261.365 45.485 261.48 45.975 261.71 46.415C261.94 46.845 262.255 47.185 262.655 47.435C263.055 47.685 263.51 47.81 264.02 47.81ZM273.979 49.16C273.199 49.16 272.504 48.975 271.894 48.605C271.284 48.235 270.804 47.73 270.454 47.09C270.104 46.44 269.929 45.715 269.929 44.915C269.929 44.105 270.099 43.385 270.439 42.755C270.789 42.125 271.259 41.63 271.849 41.27C272.449 40.9 273.119 40.715 273.859 40.715C274.459 40.715 274.989 40.825 275.449 41.045C275.919 41.255 276.314 41.545 276.634 41.915C276.964 42.275 277.214 42.69 277.384 43.16C277.564 43.62 277.654 44.1 277.654 44.6C277.654 44.71 277.644 44.835 277.624 44.975C277.614 45.105 277.599 45.23 277.579 45.35H270.949V44.15H276.769L276.109 44.69C276.199 44.17 276.149 43.705 275.959 43.295C275.769 42.885 275.489 42.56 275.119 42.32C274.749 42.08 274.329 41.96 273.859 41.96C273.389 41.96 272.959 42.08 272.569 42.32C272.179 42.56 271.874 42.905 271.654 43.355C271.444 43.795 271.359 44.32 271.399 44.93C271.359 45.52 271.449 46.04 271.669 46.49C271.899 46.93 272.219 47.275 272.629 47.525C273.049 47.765 273.504 47.885 273.994 47.885C274.534 47.885 274.989 47.76 275.359 47.51C275.729 47.26 276.029 46.94 276.259 46.55L277.429 47.15C277.269 47.52 277.019 47.86 276.679 48.17C276.349 48.47 275.954 48.71 275.494 48.89C275.044 49.07 274.539 49.16 273.979 49.16ZM279.473 48.98V40.895H280.838V42.38L280.688 42.17C280.878 41.71 281.168 41.37 281.558 41.15C281.948 40.92 282.423 40.805 282.983 40.805H283.478V42.125H282.773C282.203 42.125 281.743 42.305 281.393 42.665C281.043 43.015 280.868 43.515 280.868 44.165V48.98H279.473ZM288.164 48.98V42.23H286.619V40.895H288.164V40.325C288.164 39.745 288.289 39.255 288.539 38.855C288.799 38.455 289.139 38.15 289.559 37.94C289.989 37.73 290.464 37.625 290.984 37.625C291.094 37.625 291.214 37.635 291.344 37.655C291.484 37.665 291.599 37.68 291.689 37.7V38.945C291.609 38.925 291.514 38.915 291.404 38.915C291.294 38.905 291.209 38.9 291.149 38.9C290.689 38.9 290.309 39.01 290.009 39.23C289.719 39.45 289.574 39.815 289.574 40.325V40.895H291.494V42.23H289.574V48.98H288.164ZM296.731 49.16C295.951 49.16 295.246 48.98 294.616 48.62C293.986 48.25 293.486 47.745 293.116 47.105C292.746 46.465 292.561 45.74 292.561 44.93C292.561 44.12 292.741 43.4 293.101 42.77C293.471 42.14 293.971 41.64 294.601 41.27C295.231 40.9 295.941 40.715 296.731 40.715C297.511 40.715 298.216 40.9 298.846 41.27C299.476 41.63 299.971 42.125 300.331 42.755C300.701 43.385 300.886 44.11 300.886 44.93C300.886 45.75 300.696 46.48 300.316 47.12C299.936 47.75 299.431 48.25 298.801 48.62C298.181 48.98 297.491 49.16 296.731 49.16ZM296.731 47.81C297.231 47.81 297.681 47.685 298.081 47.435C298.491 47.185 298.811 46.84 299.041 46.4C299.281 45.96 299.401 45.47 299.401 44.93C299.401 44.38 299.281 43.895 299.041 43.475C298.811 43.045 298.491 42.705 298.081 42.455C297.681 42.195 297.231 42.065 296.731 42.065C296.221 42.065 295.761 42.195 295.351 42.455C294.951 42.705 294.631 43.045 294.391 43.475C294.151 43.895 294.031 44.38 294.031 44.93C294.031 45.47 294.151 45.96 294.391 46.4C294.631 46.84 294.951 47.185 295.351 47.435C295.761 47.685 296.221 47.81 296.731 47.81ZM302.705 48.98V40.895H304.07V42.38L303.92 42.17C304.11 41.71 304.4 41.37 304.79 41.15C305.18 40.92 305.655 40.805 306.215 40.805H306.71V42.125H306.005C305.435 42.125 304.975 42.305 304.625 42.665C304.275 43.015 304.1 43.515 304.1 44.165V48.98H302.705ZM311.397 48.98V42.23H309.852V40.895H311.397V40.325C311.397 39.745 311.522 39.255 311.772 38.855C312.032 38.455 312.372 38.15 312.792 37.94C313.222 37.73 313.697 37.625 314.217 37.625C314.327 37.625 314.447 37.635 314.577 37.655C314.717 37.665 314.832 37.68 314.922 37.7V38.945C314.842 38.925 314.747 38.915 314.637 38.915C314.527 38.905 314.442 38.9 314.382 38.9C313.922 38.9 313.542 39.01 313.242 39.23C312.952 39.45 312.807 39.815 312.807 40.325V40.895H314.727V42.23H312.807V48.98H311.397ZM316.401 48.98V40.895H317.766V42.38L317.616 42.17C317.806 41.71 318.096 41.37 318.486 41.15C318.876 40.92 319.351 40.805 319.911 40.805H320.406V42.125H319.701C319.131 42.125 318.671 42.305 318.321 42.665C317.971 43.015 317.796 43.515 317.796 44.165V48.98H316.401ZM325.365 49.16C324.585 49.16 323.89 48.975 323.28 48.605C322.67 48.235 322.19 47.73 321.84 47.09C321.49 46.44 321.315 45.715 321.315 44.915C321.315 44.105 321.485 43.385 321.825 42.755C322.175 42.125 322.645 41.63 323.235 41.27C323.835 40.9 324.505 40.715 325.245 40.715C325.845 40.715 326.375 40.825 326.835 41.045C327.305 41.255 327.7 41.545 328.02 41.915C328.35 42.275 328.6 42.69 328.77 43.16C328.95 43.62 329.04 44.1 329.04 44.6C329.04 44.71 329.03 44.835 329.01 44.975C329 45.105 328.985 45.23 328.965 45.35H322.335V44.15H328.155L327.495 44.69C327.585 44.17 327.535 43.705 327.345 43.295C327.155 42.885 326.875 42.56 326.505 42.32C326.135 42.08 325.715 41.96 325.245 41.96C324.775 41.96 324.345 42.08 323.955 42.32C323.565 42.56 323.26 42.905 323.04 43.355C322.83 43.795 322.745 44.32 322.785 44.93C322.745 45.52 322.835 46.04 323.055 46.49C323.285 46.93 323.605 47.275 324.015 47.525C324.435 47.765 324.89 47.885 325.38 47.885C325.92 47.885 326.375 47.76 326.745 47.51C327.115 47.26 327.415 46.94 327.645 46.55L328.815 47.15C328.655 47.52 328.405 47.86 328.065 48.17C327.735 48.47 327.34 48.71 326.88 48.89C326.43 49.07 325.925 49.16 325.365 49.16ZM334.579 49.16C333.799 49.16 333.104 48.975 332.494 48.605C331.884 48.235 331.404 47.73 331.054 47.09C330.704 46.44 330.529 45.715 330.529 44.915C330.529 44.105 330.699 43.385 331.039 42.755C331.389 42.125 331.859 41.63 332.449 41.27C333.049 40.9 333.719 40.715 334.459 40.715C335.059 40.715 335.589 40.825 336.049 41.045C336.519 41.255 336.914 41.545 337.234 41.915C337.564 42.275 337.814 42.69 337.984 43.16C338.164 43.62 338.254 44.1 338.254 44.6C338.254 44.71 338.244 44.835 338.224 44.975C338.214 45.105 338.199 45.23 338.179 45.35H331.549V44.15H337.369L336.709 44.69C336.799 44.17 336.749 43.705 336.559 43.295C336.369 42.885 336.089 42.56 335.719 42.32C335.349 42.08 334.929 41.96 334.459 41.96C333.989 41.96 333.559 42.08 333.169 42.32C332.779 42.56 332.474 42.905 332.254 43.355C332.044 43.795 331.959 44.32 331.999 44.93C331.959 45.52 332.049 46.04 332.269 46.49C332.499 46.93 332.819 47.275 333.229 47.525C333.649 47.765 334.104 47.885 334.594 47.885C335.134 47.885 335.589 47.76 335.959 47.51C336.329 47.26 336.629 46.94 336.859 46.55L338.029 47.15C337.869 47.52 337.619 47.86 337.279 48.17C336.949 48.47 336.554 48.71 336.094 48.89C335.644 49.07 335.139 49.16 334.579 49.16Z" fill="#9B9B9B"/>
<g clip-path="url(#clip1_8360_21452)">
<path d="M377.199 21.5151C376.6 21.5151 376.034 21.6323 375.5 21.8667C374.966 22.088 374.5 22.3973 374.103 22.7944C373.706 23.1915 373.397 23.657 373.176 24.1909C372.941 24.7247 372.824 25.2911 372.824 25.8901C372.824 26.4891 372.941 27.0555 373.176 27.5893C373.397 28.1232 373.706 28.5887 374.103 28.9858C374.5 29.3829 374.966 29.6922 375.5 29.9135C376.034 30.1479 376.6 30.2651 377.199 30.2651C377.798 30.2651 378.364 30.1479 378.898 29.9135C379.432 29.6922 379.898 29.3829 380.295 28.9858C380.692 28.5887 381.001 28.1232 381.222 27.5893C381.457 27.0555 381.574 26.4891 381.574 25.8901C381.574 25.2911 381.457 24.7247 381.222 24.1909C381.001 23.657 380.692 23.1915 380.295 22.7944C379.898 22.3973 379.432 22.088 378.898 21.8667C378.364 21.6323 377.798 21.5151 377.199 21.5151ZM371.574 25.8901C371.574 25.1088 371.724 24.3797 372.023 23.7026C372.31 23.0125 372.707 22.4135 373.215 21.9057C373.722 21.3979 374.321 21.0008 375.012 20.7143C375.689 20.4148 376.418 20.2651 377.199 20.2651C377.98 20.2651 378.709 20.4148 379.387 20.7143C380.077 21.0008 380.676 21.3979 381.183 21.9057C381.691 22.4135 382.088 23.0125 382.375 23.7026C382.674 24.3797 382.824 25.1088 382.824 25.8901C382.824 26.6713 382.674 27.4005 382.375 28.0776C382.088 28.7677 381.691 29.3667 381.183 29.8745C380.676 30.3823 380.077 30.7794 379.387 31.0659C378.709 31.3654 377.98 31.5151 377.199 31.5151C376.418 31.5151 375.689 31.3654 375.012 31.0659C374.321 30.7794 373.722 30.3823 373.215 29.8745C372.707 29.3667 372.31 28.7677 372.023 28.0776C371.724 27.4005 371.574 26.6713 371.574 25.8901ZM377.199 31.5151C376.483 31.5151 375.78 31.6062 375.09 31.7885C374.4 31.9708 373.748 32.2443 373.137 32.6088C372.525 32.9604 371.965 33.3901 371.457 33.8979C370.949 34.4057 370.519 34.9656 370.168 35.5776C370.077 35.7208 369.946 35.8152 369.777 35.8608C369.608 35.9064 369.452 35.8901 369.308 35.812C369.165 35.7208 369.071 35.5906 369.025 35.4213C368.98 35.2521 368.996 35.0958 369.074 34.9526C369.491 34.2365 369.989 33.5887 370.568 33.0092C371.148 32.4298 371.795 31.9318 372.512 31.5151C373.228 31.1115 373.983 30.8022 374.777 30.5874C375.571 30.3725 376.379 30.2651 377.199 30.2651C378.019 30.2651 378.827 30.3725 379.621 30.5874C380.415 30.8022 381.17 31.1115 381.887 31.5151C382.603 31.9318 383.25 32.4298 383.83 33.0092C384.409 33.5887 384.907 34.2365 385.324 34.9526C385.402 35.0958 385.418 35.2521 385.373 35.4213C385.327 35.5906 385.233 35.7208 385.09 35.812C384.946 35.8901 384.79 35.9064 384.621 35.8608C384.452 35.8152 384.321 35.7208 384.23 35.5776C383.879 34.9656 383.449 34.4057 382.941 33.8979C382.433 33.3901 381.873 32.9604 381.262 32.6088C380.65 32.2443 379.998 31.9708 379.308 31.7885C378.618 31.6062 377.915 31.5151 377.199 31.5151Z" fill="black"/>
</g>
<g clip-path="url(#clip2_8360_21452)">
<path d="M427.037 19.8744C427.141 19.7963 427.255 19.7377 427.379 19.6986C427.503 19.6596 427.629 19.64 427.76 19.64C427.89 19.64 428.017 19.6596 428.141 19.6986C428.264 19.7377 428.378 19.7963 428.482 19.8744C428.6 19.9395 428.697 20.0242 428.775 20.1283C428.853 20.2325 428.912 20.3432 428.951 20.4604L430.67 24.7768C430.67 24.7898 430.67 24.7963 430.67 24.7963C430.67 24.7963 430.67 24.7995 430.67 24.8061C430.67 24.8126 430.676 24.8158 430.689 24.8158L435.299 25.1088C435.898 25.1479 436.282 25.4506 436.451 26.017C436.62 26.5834 436.484 27.0489 436.041 27.4135L432.506 30.3627C432.506 30.3627 432.503 30.366 432.496 30.3725C432.49 30.379 432.486 30.3822 432.486 30.3822C432.486 30.3822 432.486 30.3855 432.486 30.392C432.486 30.3985 432.486 30.4018 432.486 30.4018L433.639 34.8939C433.769 35.4408 433.606 35.8966 433.15 36.2611C432.695 36.6257 432.213 36.6452 431.705 36.3197L427.76 33.8197L424.088 36.1439C423.528 36.4955 422.997 36.4695 422.496 36.0658C421.995 35.6622 421.822 35.1609 421.978 34.5619L423.033 30.4018C423.033 30.4018 423.033 30.3985 423.033 30.392C423.033 30.3855 423.033 30.3822 423.033 30.3822C423.033 30.3822 423.03 30.379 423.023 30.3725C423.017 30.366 423.014 30.3627 423.014 30.3627L419.478 27.4135C419.036 27.0489 418.899 26.5834 419.068 26.017C419.238 25.4506 419.622 25.1479 420.221 25.1088L424.83 24.8158C424.843 24.8158 424.85 24.8126 424.85 24.8061C424.85 24.7995 424.85 24.7963 424.85 24.7963C424.85 24.7963 424.85 24.7898 424.85 24.7768L426.568 20.4604C426.607 20.3432 426.666 20.2325 426.744 20.1283C426.822 20.0242 426.92 19.9395 427.037 19.8744ZM428.443 32.765L432.369 35.265C432.382 35.265 432.389 35.265 432.389 35.265C432.389 35.265 432.395 35.265 432.408 35.265C432.408 35.252 432.411 35.2455 432.418 35.2455C432.424 35.2455 432.428 35.239 432.428 35.226C432.428 35.226 432.428 35.2227 432.428 35.2162C432.428 35.2097 432.428 35.2064 432.428 35.2064L431.275 30.7143C431.249 30.5971 431.24 30.4766 431.246 30.3529C431.253 30.2292 431.275 30.1088 431.314 29.9916C431.34 29.8744 431.389 29.7637 431.461 29.6596C431.532 29.5554 431.614 29.4643 431.705 29.3861L435.24 26.4564C435.24 26.4434 435.243 26.4369 435.25 26.4369C435.256 26.4369 435.26 26.4369 435.26 26.4369C435.26 26.4369 435.26 26.4304 435.26 26.4174C435.26 26.4174 435.26 26.4141 435.26 26.4076C435.26 26.4011 435.26 26.3913 435.26 26.3783C435.26 26.3783 435.256 26.3751 435.25 26.3686C435.243 26.362 435.24 26.3588 435.24 26.3588C435.24 26.3588 435.234 26.3588 435.221 26.3588L430.631 26.0658C430.631 26.0658 430.628 26.0658 430.621 26.0658C430.615 26.0658 430.611 26.0658 430.611 26.0658C430.494 26.0528 430.377 26.0268 430.26 25.9877C430.142 25.9486 430.038 25.89 429.947 25.8119C429.843 25.7338 429.755 25.6492 429.684 25.558C429.612 25.4669 429.55 25.3627 429.498 25.2455L427.779 20.9096C427.779 20.8966 427.779 20.89 427.779 20.89C427.779 20.89 427.776 20.89 427.769 20.89C427.763 20.89 427.76 20.89 427.76 20.89C427.76 20.89 427.756 20.89 427.75 20.89C427.743 20.89 427.74 20.89 427.74 20.89C427.74 20.89 427.74 20.8966 427.74 20.9096L426.021 25.2455C425.969 25.3627 425.907 25.4669 425.836 25.558C425.764 25.6492 425.676 25.7338 425.572 25.8119C425.481 25.89 425.377 25.9486 425.26 25.9877C425.142 26.0268 425.025 26.0528 424.908 26.0658L420.299 26.3588C420.286 26.3588 420.279 26.3588 420.279 26.3588C420.279 26.3588 420.276 26.362 420.269 26.3686C420.263 26.3751 420.26 26.3783 420.26 26.3783C420.26 26.3913 420.26 26.4011 420.26 26.4076C420.26 26.4141 420.26 26.4174 420.26 26.4174C420.26 26.4304 420.26 26.4369 420.26 26.4369C420.26 26.4369 420.263 26.4369 420.269 26.4369C420.276 26.4369 420.279 26.4434 420.279 26.4564L423.814 29.3861C423.906 29.4643 423.987 29.5554 424.059 29.6596C424.13 29.7637 424.179 29.8744 424.205 29.9916C424.244 30.1088 424.267 30.2292 424.273 30.3529C424.28 30.4766 424.27 30.5971 424.244 30.7143L423.189 34.8744C423.176 34.9135 423.176 34.9525 423.189 34.9916C423.202 35.0307 423.222 35.0567 423.248 35.0697C423.261 35.0827 423.274 35.0925 423.287 35.099C423.3 35.1055 423.313 35.1088 423.326 35.1088C423.339 35.1088 423.352 35.1088 423.365 35.1088C423.378 35.1088 423.398 35.1023 423.424 35.0893L427.076 32.765C427.18 32.6999 427.291 32.6511 427.408 32.6186C427.525 32.586 427.642 32.5697 427.76 32.5697C427.877 32.5697 427.994 32.586 428.111 32.6186C428.228 32.6511 428.339 32.6999 428.443 32.765Z" fill="black"/>
</g>
<rect x="431" y="8.39014" width="18" height="18" rx="9" fill="#2EBB77"/>
<path d="M440.201 21.5341C439.489 21.5341 438.865 21.3421 438.329 20.9581C437.801 20.5661 437.389 20.0261 437.093 19.3381C436.797 18.6421 436.649 17.8341 436.649 16.9141C436.649 15.9941 436.797 15.1901 437.093 14.5021C437.389 13.8061 437.801 13.2661 438.329 12.8821C438.857 12.4981 439.477 12.3061 440.189 12.3061C440.901 12.3061 441.521 12.4981 442.049 12.8821C442.577 13.2661 442.989 13.8061 443.285 14.5021C443.589 15.1901 443.741 15.9941 443.741 16.9141C443.741 17.8341 443.593 18.6421 443.297 19.3381C443.001 20.0341 442.585 20.5741 442.049 20.9581C441.521 21.3421 440.905 21.5341 440.201 21.5341ZM440.201 20.4421C440.681 20.4421 441.097 20.2981 441.449 20.0101C441.801 19.7141 442.073 19.3021 442.265 18.7741C442.465 18.2461 442.565 17.6261 442.565 16.9141C442.565 16.2021 442.465 15.5821 442.265 15.0541C442.073 14.5261 441.797 14.1181 441.437 13.8301C441.085 13.5421 440.669 13.3981 440.189 13.3981C439.709 13.3981 439.293 13.5421 438.941 13.8301C438.589 14.1181 438.313 14.5261 438.113 15.0541C437.921 15.5821 437.825 16.2021 437.825 16.9141C437.825 17.6181 437.921 18.2341 438.113 18.7621C438.313 19.2901 438.589 19.7021 438.941 19.9981C439.301 20.2941 439.721 20.4421 440.201 20.4421Z" fill="white"/>
<path d="M471.373 23.3901H483.99C484.146 23.3901 484.296 23.4162 484.439 23.4683C484.583 23.5203 484.713 23.5985 484.83 23.7026C484.947 23.8068 485.042 23.9272 485.113 24.064C485.185 24.2007 485.227 24.3407 485.24 24.4839C485.24 24.4969 485.24 24.5034 485.24 24.5034L486.354 34.5034C486.367 34.5946 486.367 34.6825 486.354 34.7671C486.34 34.8517 486.321 34.9331 486.295 35.0112C486.269 35.1024 486.236 35.1838 486.197 35.2554C486.158 35.327 486.106 35.3953 486.041 35.4604C485.989 35.5386 485.927 35.6037 485.855 35.6558C485.784 35.7078 485.709 35.7469 485.631 35.7729C485.54 35.812 485.452 35.8413 485.367 35.8608C485.283 35.8804 485.201 35.8901 485.123 35.8901H470.24C470.162 35.8901 470.081 35.8804 469.996 35.8608C469.911 35.8413 469.824 35.812 469.732 35.7729C469.654 35.7469 469.579 35.7078 469.508 35.6558C469.436 35.6037 469.374 35.5386 469.322 35.4604C469.257 35.3953 469.205 35.327 469.166 35.2554C469.127 35.1838 469.094 35.1024 469.068 35.0112C469.042 34.9331 469.023 34.8517 469.01 34.7671C468.997 34.6825 468.997 34.5946 469.01 34.5034L470.123 24.5034C470.123 24.5034 470.123 24.4969 470.123 24.4839C470.136 24.3407 470.178 24.2007 470.25 24.064C470.322 23.9272 470.416 23.8068 470.533 23.7026C470.65 23.5985 470.781 23.5203 470.924 23.4683C471.067 23.4162 471.217 23.3901 471.373 23.3901ZM483.99 24.6401H471.373L470.26 34.6401H485.104L483.99 24.6401ZM477.682 21.5151C477.356 21.5151 477.037 21.577 476.725 21.7007C476.412 21.8244 476.139 22.0034 475.904 22.2378C475.67 22.4722 475.491 22.7456 475.367 23.0581C475.243 23.3706 475.182 23.6896 475.182 24.0151V26.5151C475.182 26.6844 475.12 26.8309 474.996 26.9546C474.872 27.0783 474.726 27.1401 474.557 27.1401C474.387 27.1401 474.241 27.0783 474.117 26.9546C473.993 26.8309 473.932 26.6844 473.932 26.5151V24.0151C473.932 23.5203 474.026 23.0418 474.215 22.5796C474.404 22.1174 474.674 21.7104 475.025 21.3589C475.377 21.0073 475.784 20.7371 476.246 20.5483C476.708 20.3595 477.187 20.2651 477.682 20.2651C478.176 20.2651 478.655 20.3595 479.117 20.5483C479.579 20.7371 479.986 21.0073 480.338 21.3589C480.689 21.7104 480.96 22.1174 481.148 22.5796C481.337 23.0418 481.432 23.5203 481.432 24.0151V26.5151C481.432 26.6844 481.37 26.8309 481.246 26.9546C481.122 27.0783 480.976 27.1401 480.807 27.1401C480.637 27.1401 480.491 27.0783 480.367 26.9546C480.243 26.8309 480.182 26.6844 480.182 26.5151V24.0151C480.182 23.6896 480.12 23.3706 479.996 23.0581C479.872 22.7456 479.693 22.4722 479.459 22.2378C479.225 22.0034 478.951 21.8244 478.639 21.7007C478.326 21.577 478.007 21.5151 477.682 21.5151Z" fill="black"/>
<rect x="481" y="8.39014" width="18" height="18" rx="9" fill="#2EBB77"/>
<path d="M490.201 21.5341C489.489 21.5341 488.865 21.3421 488.329 20.9581C487.801 20.5661 487.389 20.0261 487.093 19.3381C486.797 18.6421 486.649 17.8341 486.649 16.9141C486.649 15.9941 486.797 15.1901 487.093 14.5021C487.389 13.8061 487.801 13.2661 488.329 12.8821C488.857 12.4981 489.477 12.3061 490.189 12.3061C490.901 12.3061 491.521 12.4981 492.049 12.8821C492.577 13.2661 492.989 13.8061 493.285 14.5021C493.589 15.1901 493.741 15.9941 493.741 16.9141C493.741 17.8341 493.593 18.6421 493.297 19.3381C493.001 20.0341 492.585 20.5741 492.049 20.9581C491.521 21.3421 490.905 21.5341 490.201 21.5341ZM490.201 20.4421C490.681 20.4421 491.097 20.2981 491.449 20.0101C491.801 19.7141 492.073 19.3021 492.265 18.7741C492.465 18.2461 492.565 17.6261 492.565 16.9141C492.565 16.2021 492.465 15.5821 492.265 15.0541C492.073 14.5261 491.797 14.1181 491.437 13.8301C491.085 13.5421 490.669 13.3981 490.189 13.3981C489.709 13.3981 489.293 13.5421 488.941 13.8301C488.589 14.1181 488.313 14.5261 488.113 15.0541C487.921 15.5821 487.825 16.2021 487.825 16.9141C487.825 17.6181 487.921 18.2341 488.113 18.7621C488.313 19.2901 488.589 19.7021 488.941 19.9981C489.301 20.2941 489.721 20.4421 490.201 20.4421Z" fill="white"/>
<defs>
<clipPath id="clip0_8360_21452">
<rect width="24" height="25" fill="white" transform="matrix(1 0 0 -1 111.631 40.3901)"/>
</clipPath>
<clipPath id="clip1_8360_21452">
<rect width="20" height="36" fill="white" transform="matrix(1 0 0 -1 369 46.3901)"/>
</clipPath>
<clipPath id="clip2_8360_21452">
<rect width="20" height="20" fill="white" transform="matrix(1 0 0 -1 419 38.3901)"/>
</clipPath>
</defs>
</svg>
