<svg width="15" height="29" viewBox="0 0 15 29" fill="none" xmlns="http://www.w3.org/2000/svg">
<path d="M8 10.4062C9.96875 10.4062 11.5938 12.0312 11.5938 14C11.5938 16 9.96875 17.5938 8 17.5938C6 17.5938 4.40625 16 4.40625 14C4.40625 12.0312 6 10.4062 8 10.4062ZM8 16.3438C9.28125 16.3438 10.3125 15.3125 10.3125 14C10.3125 12.7188 9.28125 11.6875 8 11.6875C6.6875 11.6875 5.65625 12.7188 5.65625 14C5.65625 15.3125 6.71875 16.3438 8 16.3438ZM12.5625 10.2812C12.5625 10.75 12.1875 11.125 11.7188 11.125C11.25 11.125 10.875 10.75 10.875 10.2812C10.875 9.8125 11.25 9.4375 11.7188 9.4375C12.1875 9.4375 12.5625 9.8125 12.5625 10.2812ZM14.9375 11.125C15 12.2812 15 15.75 14.9375 16.9062C14.875 18.0312 14.625 19 13.8125 19.8438C13 20.6562 12 20.9062 10.875 20.9688C9.71875 21.0312 6.25 21.0312 5.09375 20.9688C3.96875 20.9062 3 20.6562 2.15625 19.8438C1.34375 19 1.09375 18.0312 1.03125 16.9062C0.96875 15.75 0.96875 12.2812 1.03125 11.125C1.09375 10 1.34375 9 2.15625 8.1875C3 7.375 3.96875 7.125 5.09375 7.0625C6.25 7 9.71875 7 10.875 7.0625C12 7.125 13 7.375 13.8125 8.1875C14.625 9 14.875 10 14.9375 11.125ZM13.4375 18.125C13.8125 17.2188 13.7188 15.0312 13.7188 14C13.7188 13 13.8125 10.8125 13.4375 9.875C13.1875 9.28125 12.7188 8.78125 12.125 8.5625C11.1875 8.1875 9 8.28125 8 8.28125C6.96875 8.28125 4.78125 8.1875 3.875 8.5625C3.25 8.8125 2.78125 9.28125 2.53125 9.875C2.15625 10.8125 2.25 13 2.25 14C2.25 15.0312 2.15625 17.2188 2.53125 18.125C2.78125 18.75 3.25 19.2188 3.875 19.4688C4.78125 19.8438 6.96875 19.75 8 19.75C9 19.75 11.1875 19.8438 12.125 19.4688C12.7188 19.2188 13.2188 18.75 13.4375 18.125Z" fill="#9B9B9B"/>
</svg>
