<svg width="60" height="39" viewBox="0 0 60 39" fill="none" xmlns="http://www.w3.org/2000/svg">
<g clip-path="url(#clip0_8360_21464)">
<path d="M38.037 11.8744C38.1412 11.7963 38.2551 11.7377 38.3788 11.6986C38.5025 11.6596 38.6295 11.64 38.7597 11.64C38.8899 11.64 39.0168 11.6596 39.1405 11.6986C39.2642 11.7377 39.3782 11.7963 39.4823 11.8744C39.5995 11.9395 39.6972 12.0242 39.7753 12.1283C39.8534 12.2325 39.912 12.3432 39.9511 12.4604L41.6698 16.7768C41.6698 16.7898 41.6698 16.7963 41.6698 16.7963C41.6698 16.7963 41.6698 16.7995 41.6698 16.8061C41.6698 16.8126 41.6763 16.8158 41.6894 16.8158L46.2987 17.1088C46.8977 17.1479 47.2818 17.4506 47.4511 18.017C47.6204 18.5834 47.4836 19.0489 47.0409 19.4135L43.5058 22.3627C43.5058 22.3627 43.5025 22.366 43.496 22.3725C43.4895 22.379 43.4862 22.3822 43.4862 22.3822C43.4862 22.3822 43.4862 22.3855 43.4862 22.392C43.4862 22.3985 43.4862 22.4018 43.4862 22.4018L44.6386 26.8939C44.7688 27.4408 44.606 27.8966 44.1503 28.2611C43.6946 28.6257 43.2128 28.6452 42.705 28.3197L38.7597 25.8197L35.0878 28.1439C34.5279 28.4955 33.9973 28.4695 33.496 28.0658C32.9947 27.6622 32.8222 27.1609 32.9784 26.5619L34.0331 22.4018C34.0331 22.4018 34.0331 22.3985 34.0331 22.392C34.0331 22.3855 34.0331 22.3822 34.0331 22.3822C34.0331 22.3822 34.0299 22.379 34.0234 22.3725C34.0168 22.366 34.0136 22.3627 34.0136 22.3627L30.4784 19.4135C30.0357 19.0489 29.899 18.5834 30.0683 18.017C30.2375 17.4506 30.6217 17.1479 31.2206 17.1088L35.83 16.8158C35.843 16.8158 35.8495 16.8126 35.8495 16.8061C35.8495 16.7995 35.8495 16.7963 35.8495 16.7963C35.8495 16.7963 35.8495 16.7898 35.8495 16.7768L37.5683 12.4604C37.6073 12.3432 37.6659 12.2325 37.7441 12.1283C37.8222 12.0242 37.9198 11.9395 38.037 11.8744ZM39.4433 24.765L43.3691 27.265C43.3821 27.265 43.3886 27.265 43.3886 27.265C43.3886 27.265 43.3951 27.265 43.4081 27.265C43.4081 27.252 43.4114 27.2455 43.4179 27.2455C43.4244 27.2455 43.4277 27.239 43.4277 27.226C43.4277 27.226 43.4277 27.2227 43.4277 27.2162C43.4277 27.2097 43.4277 27.2064 43.4277 27.2064L42.2753 22.7143C42.2493 22.5971 42.2395 22.4766 42.246 22.3529C42.2525 22.2292 42.2753 22.1088 42.3144 21.9916C42.3404 21.8744 42.3892 21.7637 42.4609 21.6596C42.5325 21.5554 42.6138 21.4643 42.705 21.3861L46.2402 18.4564C46.2402 18.4434 46.2434 18.4369 46.2499 18.4369C46.2564 18.4369 46.2597 18.4369 46.2597 18.4369C46.2597 18.4369 46.2597 18.4304 46.2597 18.4174C46.2597 18.4174 46.2597 18.4141 46.2597 18.4076C46.2597 18.4011 46.2597 18.3913 46.2597 18.3783C46.2597 18.3783 46.2564 18.3751 46.2499 18.3686C46.2434 18.362 46.2402 18.3588 46.2402 18.3588C46.2402 18.3588 46.2336 18.3588 46.2206 18.3588L41.6308 18.0658C41.6308 18.0658 41.6275 18.0658 41.621 18.0658C41.6145 18.0658 41.6112 18.0658 41.6112 18.0658C41.4941 18.0528 41.3769 18.0268 41.2597 17.9877C41.1425 17.9486 41.0383 17.89 40.9472 17.8119C40.843 17.7338 40.7551 17.6492 40.6835 17.558C40.6119 17.4669 40.55 17.3627 40.498 17.2455L38.7792 12.9096C38.7792 12.8966 38.7792 12.89 38.7792 12.89C38.7792 12.89 38.776 12.89 38.7694 12.89C38.7629 12.89 38.7597 12.89 38.7597 12.89C38.7597 12.89 38.7564 12.89 38.7499 12.89C38.7434 12.89 38.7402 12.89 38.7402 12.89C38.7402 12.89 38.7402 12.8966 38.7402 12.9096L37.0214 17.2455C36.9693 17.3627 36.9075 17.4669 36.8359 17.558C36.7642 17.6492 36.6763 17.7338 36.5722 17.8119C36.481 17.89 36.3769 17.9486 36.2597 17.9877C36.1425 18.0268 36.0253 18.0528 35.9081 18.0658L31.2987 18.3588C31.2857 18.3588 31.2792 18.3588 31.2792 18.3588C31.2792 18.3588 31.276 18.362 31.2694 18.3686C31.2629 18.3751 31.2597 18.3783 31.2597 18.3783C31.2597 18.3913 31.2597 18.4011 31.2597 18.4076C31.2597 18.4141 31.2597 18.4174 31.2597 18.4174C31.2597 18.4304 31.2597 18.4369 31.2597 18.4369C31.2597 18.4369 31.2629 18.4369 31.2694 18.4369C31.276 18.4369 31.2792 18.4434 31.2792 18.4564L34.8144 21.3861C34.9055 21.4643 34.9869 21.5554 35.0585 21.6596C35.1301 21.7637 35.179 21.8744 35.205 21.9916C35.2441 22.1088 35.2668 22.2292 35.2734 22.3529C35.2799 22.4766 35.2701 22.5971 35.2441 22.7143L34.1894 26.8744C34.1763 26.9135 34.1763 26.9525 34.1894 26.9916C34.2024 27.0307 34.2219 27.0567 34.248 27.0697C34.261 27.0827 34.274 27.0925 34.287 27.099C34.3 27.1055 34.3131 27.1088 34.3261 27.1088C34.3391 27.1088 34.3521 27.1088 34.3652 27.1088C34.3782 27.1088 34.3977 27.1023 34.4237 27.0893L38.0761 24.765C38.1803 24.6999 38.2909 24.6511 38.4081 24.6186C38.5253 24.586 38.6425 24.5697 38.7597 24.5697C38.8769 24.5697 38.9941 24.586 39.1112 24.6186C39.2284 24.6511 39.3391 24.6999 39.4433 24.765Z" fill="black"/>
</g>
<rect x="42" y="0.390137" width="18" height="18" rx="9" fill="#2EBB77"/>
<path d="M51.2011 13.5341C50.4891 13.5341 49.8651 13.3421 49.3291 12.9581C48.8011 12.5661 48.3891 12.0261 48.0931 11.3381C47.7971 10.6421 47.6491 9.83414 47.6491 8.91414C47.6491 7.99414 47.7971 7.19014 48.0931 6.50214C48.3891 5.80614 48.8011 5.26614 49.3291 4.88214C49.8571 4.49814 50.4771 4.30614 51.1891 4.30614C51.9011 4.30614 52.5211 4.49814 53.0491 4.88214C53.5771 5.26614 53.9891 5.80614 54.2851 6.50214C54.5891 7.19014 54.7411 7.99414 54.7411 8.91414C54.7411 9.83414 54.5931 10.6421 54.2971 11.3381C54.0011 12.0341 53.5851 12.5741 53.0491 12.9581C52.5211 13.3421 51.9051 13.5341 51.2011 13.5341ZM51.2011 12.4421C51.6811 12.4421 52.0971 12.2981 52.4491 12.0101C52.8011 11.7141 53.0731 11.3021 53.2651 10.7741C53.4651 10.2461 53.5651 9.62614 53.5651 8.91414C53.5651 8.20214 53.4651 7.58214 53.2651 7.05414C53.0731 6.52614 52.7971 6.11814 52.4371 5.83014C52.0851 5.54214 51.6691 5.39814 51.1891 5.39814C50.7091 5.39814 50.2931 5.54214 49.9411 5.83014C49.5891 6.11814 49.3131 6.52614 49.1131 7.05414C48.9211 7.58214 48.8251 8.20214 48.8251 8.91414C48.8251 9.61814 48.9211 10.2341 49.1131 10.7621C49.3131 11.2901 49.5891 11.7021 49.9411 11.9981C50.3011 12.2941 50.7211 12.4421 51.2011 12.4421Z" fill="white"/>
<defs>
<clipPath id="clip0_8360_21464">
<rect width="20" height="20" fill="white" transform="matrix(1 0 0 -1 30 30.3901)"/>
</clipPath>
</defs>
</svg>
