<svg width="16" height="29" viewBox="0 0 16 29" fill="none" xmlns="http://www.w3.org/2000/svg">
<path d="M14.3438 10.75C14.3438 10.9062 14.3438 11.0312 14.3438 11.1875C14.3438 15.5312 11.0625 20.5 5.03125 20.5C3.15625 20.5 1.4375 19.9688 0 19.0312C0.25 19.0625 0.5 19.0938 0.78125 19.0938C2.3125 19.0938 3.71875 18.5625 4.84375 17.6875C3.40625 17.6562 2.1875 16.7188 1.78125 15.4062C2 15.4375 2.1875 15.4688 2.40625 15.4688C2.6875 15.4688 3 15.4062 3.25 15.3438C1.75 15.0312 0.625 13.7188 0.625 12.125V12.0938C1.0625 12.3438 1.59375 12.4688 2.125 12.5C1.21875 11.9062 0.65625 10.9062 0.65625 9.78125C0.65625 9.15625 0.8125 8.59375 1.09375 8.125C2.71875 10.0938 5.15625 11.4062 7.875 11.5625C7.8125 11.3125 7.78125 11.0625 7.78125 10.8125C7.78125 9 9.25 7.53125 11.0625 7.53125C12 7.53125 12.8438 7.90625 13.4688 8.5625C14.1875 8.40625 14.9062 8.125 15.5312 7.75C15.2812 8.53125 14.7812 9.15625 14.0938 9.5625C14.75 9.5 15.4062 9.3125 15.9688 9.0625C15.5312 9.71875 14.9688 10.2812 14.3438 10.75Z" fill="#9B9B9B"/>
</svg>
