<svg width="18" height="29" viewBox="0 0 18 29" fill="none" xmlns="http://www.w3.org/2000/svg">
<path d="M17.1562 9.90625C17.5312 11.2188 17.5312 14.0312 17.5312 14.0312C17.5312 14.0312 17.5312 16.8125 17.1562 18.1562C16.9688 18.9062 16.375 19.4688 15.6562 19.6562C14.3125 20 9 20 9 20C9 20 3.65625 20 2.3125 19.6562C1.59375 19.4688 1 18.9062 0.8125 18.1562C0.4375 16.8125 0.4375 14.0312 0.4375 14.0312C0.4375 14.0312 0.4375 11.2188 0.8125 9.90625C1 9.15625 1.59375 8.5625 2.3125 8.375C3.65625 8 9 8 9 8C9 8 14.3125 8 15.6562 8.375C16.375 8.5625 16.9688 9.15625 17.1562 9.90625ZM7.25 16.5625L11.6875 14.0312L7.25 11.5V16.5625Z" fill="#9B9B9B"/>
</svg>
